<?xml version="1.0" encoding="UTF-8" standalone="no"?>
<!DOCTYPE svg PUBLIC "-//W3C//DTD SVG 1.1//EN" "http://www.w3.org/Graphics/SVG/1.1/DTD/svg11.dtd">
<svg width="100%" height="100%" viewBox="0 0 361 173" version="1.1" xmlns="http://www.w3.org/2000/svg" xmlns:xlink="http://www.w3.org/1999/xlink" xml:space="preserve" xmlns:serif="http://www.serif.com/" style="fill-rule:evenodd;clip-rule:evenodd;stroke-linejoin:round;stroke-miterlimit:2;">
    <g id="Artboard1" transform="matrix(0.45017,0,0,0.288237,0,0)">
        <rect x="0" y="0" width="800" height="600" style="fill:none;"/>
        <g transform="matrix(0.415802,0,0,0.596283,-1384.74,-103.23)">
            <g transform="matrix(-10.2018,0,0,10.6662,4184.29,321.643)">
                <path d="M0,-0.046C0.899,0.153 1.747,0.55 2.532,1.02C2.942,1.267 3.289,0.651 2.902,0.39C2.065,-0.181 1.193,-0.567 0.216,-0.83C-0.552,-1.036 -1.62,-1.313 -2.334,-0.89C-2.473,-0.806 -2.466,-0.612 -2.334,-0.528C-1.672,-0.108 -0.76,-0.216 0,-0.046" style="fill:rgb(202,156,162);"/>
            </g>
            <g transform="matrix(-10.2018,0,0,10.6662,4219.85,338.115)">
                <path d="M0,0.151C0.496,0.351 1.077,0.304 1.604,0.377C2.244,0.463 2.88,0.576 3.515,0.692C3.974,0.775 4.175,0.087 3.71,-0.015C3.08,-0.151 2.451,-0.284 1.815,-0.387C1.236,-0.48 0.56,-0.624 0,-0.417C-0.286,-0.311 -0.273,0.041 0,0.151" style="fill:rgb(202,156,162);"/>
            </g>
            <g transform="matrix(-10.2018,0,0,10.6662,4057.33,275.809)">
                <path d="M0,1.761C-0.237,1.386 -0.454,0.999 -0.624,0.589C-0.778,0.212 -0.817,-0.195 -1.021,-0.549C-1.111,-0.709 -1.385,-0.729 -1.471,-0.549C-1.866,0.283 -1.059,1.445 -0.606,2.116C-0.355,2.49 0.245,2.148 0,1.761" style="fill:rgb(202,156,162);"/>
            </g>
            <g transform="matrix(-10.2018,0,0,10.6662,3937.7,287.426)">
                <path d="M0,3.455C0.514,2.83 1.041,2.223 1.612,1.65C1.96,1.299 2.33,0.976 2.73,0.687C3.019,0.478 3.286,0.328 3.472,0.016C3.559,-0.131 3.444,-0.297 3.285,-0.308C2.565,-0.354 1.896,0.348 1.399,0.797C0.688,1.438 0.091,2.205 -0.497,2.957C-0.771,3.308 -0.292,3.809 0,3.455" style="fill:rgb(202,156,162);"/>
            </g>
            <g transform="matrix(-6.71844,8.02665,-7.67714,-7.02431,3914.51,324.43)">
                <path d="M1.417,-0.595C1.655,0.713 1.865,2.04 1.892,3.367C1.898,3.609 1.497,3.696 1.417,3.459C0.992,2.194 0.936,0.854 0.716,-0.461C0.64,-0.913 1.335,-1.05 1.417,-0.595" style="fill:rgb(202,156,162);"/>
            </g>
            <g transform="matrix(-10.2018,0,0,10.6662,3865.72,376.516)">
                <path d="M0,1.125C0.521,1.099 0.99,0.92 1.446,0.674C1.562,0.612 1.63,0.479 1.631,0.351C1.633,0.14 1.484,-0.024 1.257,-0.024C1.084,-0.024 0.899,0.099 0.748,0.168C0.508,0.276 0.263,0.347 0,0.362C-0.489,0.391 -0.493,1.149 0,1.125" style="fill:rgb(202,156,162);"/>
            </g>
            <g transform="matrix(5.96972,8.64938,-8.27275,6.24149,4175.49,1071.12)">
                <path d="M0.136,-0.254C0.152,-0.145 0.168,-0.035 0.183,0.075C0.188,0.105 0.142,0.113 0.136,0.083C0.116,-0.026 0.097,-0.136 0.078,-0.244C0.072,-0.281 0.131,-0.292 0.136,-0.254" style="fill:rgb(208,157,40);"/>
            </g>
            <g transform="matrix(-10.2018,0,0,10.6662,3801.13,493.474)">
                <path d="M0,47.104C-6.925,60.365 -21.399,62.652 -34.281,56.816C-36.327,55.891 -38.153,54.672 -39.789,53.254C-39.584,53.092 -39.39,52.916 -39.191,52.748C-39.087,53.299 -38.828,53.867 -38.313,53.996C-38.178,54.029 -38.064,53.934 -38.055,53.801C-38.018,53.254 -38.485,52.803 -38.626,52.268C-38.531,52.184 -38.443,52.094 -38.35,52.01C-38.133,52.691 -37.798,53.646 -37.137,53.691C-37.063,53.697 -36.988,53.635 -36.97,53.564C-36.953,53.492 -36.954,53.43 -36.959,53.365C-36.345,54.096 -35.697,54.773 -34.89,55.361C-34.798,55.428 -34.688,55.281 -34.769,55.205C-35.434,54.596 -36.058,53.92 -36.663,53.23C-36.534,53.346 -36.408,53.467 -36.255,53.547C-36.146,53.605 -36.025,53.551 -35.98,53.453C-35.97,53.484 -35.97,53.518 -35.938,53.547C-35.095,54.297 -34.24,55.029 -33.346,55.717C-32.573,56.312 -31.597,57.201 -30.599,57.312C-30.489,57.324 -30.405,57.174 -30.469,57.084C-30.94,56.432 -31.784,56.051 -32.443,55.604C-33.537,54.859 -34.601,54.068 -35.628,53.236C-35.759,53.129 -35.912,53.203 -35.973,53.316C-36.188,52.48 -36.851,51.777 -37.313,51.033C-37.264,50.986 -37.213,50.943 -37.165,50.895C-36.133,51.885 -35.021,52.807 -33.787,53.605C-33.546,53.76 -33.293,53.414 -33.488,53.217C-33.644,53.059 -33.791,52.902 -33.946,52.744C-32.477,53.666 -30.906,54.381 -29.273,54.891C-29.371,54.949 -29.427,55.074 -29.321,55.176C-28.119,56.311 -26.171,57.301 -24.473,57.076C-24.345,57.059 -24.243,56.865 -24.397,56.795C-25.936,56.088 -27.621,56.148 -28.957,54.977C-27.846,55.307 -26.706,55.533 -25.553,55.678C-25.543,55.687 -25.544,55.701 -25.53,55.709C-24.379,56.4 -23.014,57.213 -21.646,57.312C-21.487,57.324 -21.454,57.107 -21.569,57.031C-22.398,56.488 -23.366,56.186 -24.29,55.799C-22.996,55.889 -21.688,55.846 -20.388,55.711C-20.399,55.789 -20.372,55.877 -20.279,55.914C-19.04,56.404 -17.503,56.721 -16.198,56.32C-16.097,56.291 -16.097,56.146 -16.198,56.115C-17.393,55.748 -18.665,55.969 -19.875,55.664C-17.118,55.314 -14.401,54.461 -11.891,53.131C-10.618,53.34 -9.404,53.117 -8.402,52.264C-8.347,52.219 -8.405,52.121 -8.47,52.145C-9.386,52.463 -10.288,52.756 -11.239,52.764C-10.587,52.393 -9.955,51.982 -9.336,51.549C-7.829,51.158 -6.144,50.588 -5.084,49.455C-5.02,49.388 -5.082,49.255 -5.18,49.291C-6.142,49.625 -7.057,50.082 -7.979,50.521C-7.95,50.496 -7.919,50.475 -7.889,50.451C-7.187,49.861 -6.553,49.215 -5.951,48.546C-4.987,47.971 -4.001,47.281 -3.401,46.383C-3.334,46.285 -3.466,46.155 -3.564,46.22C-4.016,46.511 -4.432,46.856 -4.844,47.205C0.502,40.073 0.871,29.626 -3.63,21.976C-9.769,11.546 -27.342,8.991 -36.263,17.118C-36.314,17.118 -36.368,17.132 -36.417,17.18C-42.055,22.786 -44.556,31.375 -43.038,39.157C-43.197,38.659 -43.364,38.169 -43.495,37.643C-45.412,30.006 -42.409,22.842 -37.267,17.274C-37.061,17.052 -37.375,16.74 -37.597,16.942C-45.102,23.777 -46.323,34.572 -42.439,43.306C-42.622,43.211 -42.929,43.317 -42.907,43.566C-42.849,44.223 -42.815,44.883 -42.728,45.538C-42.667,45.984 -42.654,46.536 -42.447,46.96C-42.545,47.056 -42.636,47.166 -42.735,47.26C-43.1,47.534 -43.443,47.844 -43.785,48.118C-43.886,48.198 -43.991,48.276 -44.092,48.356C-45.048,46.93 -45.889,45.419 -46.561,43.811C-46.54,43.741 -46.542,43.659 -46.584,43.572C-46.757,43.218 -46.917,42.861 -47.072,42.502C-47.106,42.405 -47.146,42.31 -47.181,42.212C-49.447,35.715 -48.379,29.266 -45.929,23.215C-45.827,23.232 -45.721,23.195 -45.692,23.059C-45.605,22.66 -45.497,22.276 -45.375,21.902C-44.979,21.004 -44.557,20.117 -44.112,19.239C-40.398,15.345 -36.597,11.731 -31.488,9.638C-29.5,8.824 -27.39,8.348 -25.236,8.145C-25.219,8.154 -25.203,8.163 -25.186,8.172C-25.185,8.199 -25.159,8.224 -25.147,8.251C-26.312,8.391 -27.419,8.633 -28.338,8.986C-28.767,9.15 -28.589,9.838 -28.147,9.681C-24.554,8.398 -21.252,9.534 -17.641,9.775C-17.43,9.79 -17.369,9.491 -17.537,9.391C-18.157,9.022 -18.887,8.754 -19.664,8.551C-19.624,8.446 -19.625,8.323 -19.676,8.219C-19.6,8.215 -19.526,8.211 -19.45,8.208C-19.289,8.223 -19.126,8.233 -18.966,8.252C-18.887,8.487 -18.534,8.633 -18.312,8.426C-18.279,8.405 -18.246,8.381 -18.213,8.358C-15.886,8.686 -13.602,9.238 -11.46,9.951C4.178,15.161 6.892,33.909 0,47.104M-30.786,14.733C-21.359,10.926 -9.108,14.191 -3.875,23.089C1.029,31.43 -1.114,42.645 -7.787,49.303C-15.394,56.893 -28.496,57 -36.266,49.955C-34.428,47.93 -32.849,45.635 -31.614,43.079C-26.92,33.367 -26.918,23.198 -30.786,14.733M-36.528,18.051C-33.498,26.229 -34.862,36.133 -39.462,43.319C-39.744,43.756 -40.04,44.172 -40.342,44.579C-44.748,36.098 -42.447,25.364 -36.528,18.051M-41.799,44.608C-41.862,44.653 -41.911,44.721 -41.913,44.828C-41.918,45.217 -41.906,45.782 -41.72,46.201C-41.76,46.243 -41.799,46.285 -41.839,46.326C-41.883,46.081 -41.945,45.833 -41.984,45.606C-42.095,44.959 -42.196,44.313 -42.285,43.665C-42.137,43.985 -41.959,44.292 -41.799,44.608M-71.574,48.863C-74.5,46.911 -77.186,44.307 -79.6,41.088C-88.479,29.254 -84.513,16.577 -74.586,7.098C-74.471,6.989 -74.456,6.864 -74.492,6.752C-64.529,0.221 -48.449,2.373 -40.76,10.922C-40.484,11.231 -40.236,11.557 -39.985,11.881C-43.43,14.502 -45.696,19.147 -47.515,22.711C-50.669,28.899 -50.979,37.424 -47.366,43.481C-46.653,45.333 -45.724,47.1 -44.613,48.759C-44.792,48.895 -44.966,49.036 -45.143,49.176C-52.792,54.367 -63.305,53.537 -71.574,48.863M-80.115,11.697C-80.078,11.715 -80.038,11.725 -79.996,11.735C-85.429,18.813 -87.005,27.145 -83.668,35.613C-87.02,27.688 -86.011,18.655 -80.115,11.697M-76.993,46.209C-75.631,47.475 -74.126,48.596 -72.525,49.566C-71.766,50.082 -70.983,50.553 -70.186,50.988C-73.145,49.781 -75.818,48.227 -78.342,45.728C-80.78,43.316 -82.511,40.354 -83.79,37.202C-82.18,40.45 -79.89,43.516 -76.993,46.209M-39.972,13.537C-41.502,14.799 -42.89,16.239 -43.966,17.821C-42.669,15.696 -41.127,13.686 -39.213,12.273C-39.497,12.563 -39.763,12.854 -39.987,13.139C-40.099,13.284 -40.067,13.444 -39.972,13.537M-43.309,54.686C-43.428,54.756 -43.543,54.832 -43.663,54.902C-43.776,54.971 -43.892,55.033 -44.007,55.1C-51.516,59.344 -60.932,60.375 -69.605,58.111C-69.61,58.055 -69.633,58 -69.697,57.967C-77.048,54.242 -82.774,49.695 -87.417,42.794C-93.83,33.267 -90.898,24.4 -88.702,14.172C-88.655,13.952 -88.951,13.879 -89.032,14.081C-92.759,23.346 -93.867,32.791 -88.996,41.76C-85.816,47.616 -80.472,53.311 -74.307,56.523C-74.896,56.277 -75.479,56.02 -76.054,55.74C-91.746,48.12 -97.001,27.233 -88.733,12.518C-88.649,12.889 -88.124,13.1 -87.909,12.676C-81.077,-0.82 -66.57,-5.507 -52.368,-1.968C-45.514,-0.261 -39.4,3.732 -34.858,9.086C-35.487,9.428 -36.102,9.79 -36.673,10.178C-36.752,10.202 -36.825,10.236 -36.902,10.26C-37.05,10.043 -37.25,9.854 -37.44,9.663C-37.658,9.446 -37.949,9.592 -38.034,9.813C-38.22,9.653 -38.408,9.502 -38.547,9.368C-38.83,9.092 -39.219,9.374 -39.196,9.68C-39.513,9.408 -39.827,9.129 -40.156,8.874C-40.324,8.743 -40.529,8.819 -40.618,8.956C-41.067,8.502 -41.527,8.063 -42.009,7.643C-42.222,7.458 -42.47,7.682 -42.391,7.903C-51.617,0.02 -69.132,-0.3 -77.895,8.222C-85.635,14.611 -87.898,23.437 -85.79,31.797C-85.95,31.814 -86.104,31.941 -86.065,32.149C-84.143,42.336 -76.133,52.75 -65.035,53.422C-64.889,53.432 -64.808,53.344 -64.764,53.238C-61.487,54.195 -58.032,54.512 -54.543,54.088C-53.557,54.648 -52.361,55.045 -51.297,54.924C-51.166,54.908 -51.09,54.734 -51.224,54.658C-51.781,54.344 -52.418,54.232 -53.034,54.08C-53.194,54.041 -53.342,53.977 -53.497,53.928C-52.93,53.834 -52.364,53.717 -51.797,53.588C-51.828,53.691 -51.812,53.812 -51.701,53.871C-50.838,54.324 -48.93,54.922 -48.318,53.762C-48.249,53.629 -48.334,53.455 -48.492,53.457C-48.921,53.463 -49.304,53.68 -49.734,53.725C-50.304,53.783 -50.825,53.68 -51.348,53.482C-50.757,53.336 -50.167,53.16 -49.576,52.967C-49.542,53.025 -49.495,53.08 -49.413,53.107C-48.972,53.254 -48.536,53.336 -48.072,53.359C-47.531,53.387 -47.177,53.234 -46.744,52.932C-46.639,52.859 -46.673,52.689 -46.81,52.686C-47.425,52.674 -48.037,52.717 -48.643,52.646C-48.379,52.533 -48.329,52.248 -48.429,52.049C-47.577,51.695 -46.757,51.266 -45.953,50.799C-46.347,51.131 -46.738,51.467 -47.132,51.795C-47.356,51.984 -47.063,52.355 -46.821,52.199C-44.066,50.418 -41.155,47.979 -39.538,45.041C-36.22,40.531 -34.383,35.117 -34.07,29.621C-34.02,29.727 -33.886,29.786 -33.782,29.676C-32.946,28.799 -32.648,27.37 -32.251,26.254C-32.133,25.922 -32.646,25.793 -32.771,26.11C-33.182,27.153 -33.852,28.264 -34.06,29.377C-33.95,27.124 -34.086,24.858 -34.49,22.64C-34.443,22.643 -34.391,22.618 -34.37,22.566C-34.077,21.817 -34.033,20.983 -33.912,20.194C-33.883,20.01 -34.162,19.928 -34.194,20.116C-34.321,20.823 -34.509,21.535 -34.561,22.254C-34.772,21.174 -35.042,20.104 -35.377,19.053C-35.083,18.524 -35.079,17.743 -35.084,17.211C-35.084,17.189 -35.093,17.174 -35.097,17.155C-35.029,17.106 -34.963,17.054 -34.896,17.005C-34.348,18.147 -33.854,19.317 -33.386,20.504C-33.522,20.449 -33.705,20.479 -33.735,20.648C-33.91,21.617 -34.385,22.705 -34.19,23.697C-34.167,23.819 -33.986,23.834 -33.931,23.731C-33.474,22.891 -33.372,21.799 -33.257,20.85C-33.173,21.065 -33.096,21.286 -33.013,21.501C-33.128,21.453 -33.267,21.477 -33.289,21.636C-33.442,22.686 -33.656,23.728 -33.781,24.78C-33.799,24.925 -33.563,24.988 -33.504,24.856C-33.091,23.922 -33.003,22.885 -32.87,21.881C-32.711,22.301 -32.547,22.714 -32.397,23.144C-32.337,23.319 -32.038,23.303 -32.058,23.098C-32.278,20.736 -33.095,18.543 -34.206,16.493C-33.237,15.856 -32.206,15.339 -31.147,14.887C-27.753,22.542 -28.726,31.69 -31.238,39.506C-32.443,43.25 -34.314,46.456 -36.657,49.141C-36.745,49.051 -36.885,49.006 -36.995,49.077C-38.194,49.854 -39.087,51.182 -40.107,52.18C-41.083,53.135 -42.162,53.961 -43.309,54.686M-28.212,5.063C-28.149,5.057 -28.089,5.03 -28.054,4.967C-27.87,4.645 -28.05,4.258 -28.096,3.911C-28.137,3.583 -28.153,3.25 -28.163,2.918C-28.073,3.077 -27.978,3.244 -27.88,3.415C-27.982,3.448 -28.065,3.536 -28.063,3.678C-28.054,4.305 -27.93,5.26 -27.431,5.694C-27.334,5.778 -27.152,5.758 -27.123,5.613C-27.066,5.328 -27.136,5.111 -27.232,4.836C-27.303,4.63 -27.361,4.429 -27.406,4.223C-26.956,4.97 -26.435,5.731 -25.853,6.393C-25.999,6.388 -26.146,6.479 -26.206,6.618C-26.896,6.139 -27.565,5.614 -28.212,5.063M-30.106,3.378C-30.042,3.372 -29.98,3.333 -29.953,3.256C-29.696,2.547 -29.833,1.708 -29.882,0.969C-29.923,0.342 -30.028,-0.277 -30.136,-0.895C-29.933,-0.466 -29.719,-0.044 -29.508,0.379C-29.607,0.411 -29.694,0.479 -29.697,0.616C-29.708,1.124 -29.718,1.631 -29.729,2.138C-29.742,2.607 -29.84,3.125 -29.587,3.541C-29.511,3.664 -29.331,3.664 -29.256,3.541C-29.034,3.177 -29.097,2.77 -29.106,2.356C-29.117,1.944 -29.125,1.533 -29.134,1.12C-28.976,1.424 -28.81,1.723 -28.647,2.026C-28.723,2.073 -28.778,2.149 -28.781,2.264C-28.791,2.815 -28.8,3.362 -28.761,3.911C-28.743,4.153 -28.728,4.463 -28.626,4.713C-29.13,4.272 -29.626,3.825 -30.106,3.378M-31.32,2.249C-31.758,1.843 -32.216,1.416 -32.674,0.979C-32.333,0.038 -32.238,-1.01 -31.977,-1.98C-31.818,-2.569 -31.628,-3.152 -31.421,-3.728C-31.294,-3.427 -31.16,-3.128 -31.03,-2.829C-31.179,-1.132 -31.58,0.671 -31.194,2.299C-31.166,2.424 -30.977,2.422 -30.947,2.299C-30.609,0.965 -30.614,-0.527 -30.652,-1.97C-30.568,-1.787 -30.475,-1.607 -30.389,-1.423C-30.467,-1.413 -30.537,-1.358 -30.525,-1.269C-30.429,-0.526 -30.434,0.222 -30.433,0.969C-30.433,1.686 -30.543,2.489 -30.322,3.178C-30.659,2.864 -30.994,2.551 -31.32,2.249M-37.178,-4.834C-36.65,-4.586 -35.981,-4.531 -35.43,-4.474C-34.278,-4.356 -33.123,-4.358 -31.968,-4.312C-32.639,-2.814 -33.256,-1.126 -33.231,0.438C-34.817,-1.121 -36.357,-2.872 -37.178,-4.834M-34.57,-8.716C-33.025,-10.721 -31.545,-12.783 -29.934,-14.734C-30.566,-11.581 -31.533,-8.501 -32.048,-5.324C-32.049,-5.315 -32.053,-5.306 -32.053,-5.297C-32.059,-5.257 -32.068,-5.216 -32.076,-5.175C-32.545,-5.178 -33.014,-5.162 -33.443,-5.167C-34.298,-5.18 -36.276,-4.988 -37.125,-5.63C-36.146,-6.199 -34.91,-8.276 -34.57,-8.716M-29.11,-15.492C-27.326,-15.438 -25.544,-15.306 -23.76,-15.218C-23.779,-15.201 -23.795,-15.179 -23.813,-15.162C-23.827,-15.171 -23.839,-15.18 -23.854,-15.189C-24.133,-15.351 -24.45,-14.966 -24.221,-14.738C-25.358,-13.56 -26.266,-12.083 -27.218,-10.776C-28.456,-9.08 -29.742,-7.431 -31.079,-5.816C-31.133,-5.817 -31.187,-5.804 -31.233,-5.777C-30.617,-9.037 -29.554,-12.199 -29.11,-15.492M-19.768,-10.333C-18.878,-9.334 -17.904,-7.917 -16.772,-6.959C-16.782,-6.896 -16.779,-6.83 -16.743,-6.759C-16.636,-6.549 -16.526,-6.34 -16.418,-6.129C-16.426,-6.115 -16.434,-6.099 -16.441,-6.086C-16.485,-6.084 -16.521,-6.064 -16.56,-6.049C-16.673,-6.115 -16.815,-6.115 -16.939,-5.986C-17.094,-5.822 -17.239,-5.65 -17.39,-5.48C-21.544,-4.851 -26.271,-4.453 -30.279,-5.694C-29.272,-6.83 -28.353,-8.038 -27.444,-9.257C-26.243,-10.873 -24.799,-12.546 -23.769,-14.315C-22.363,-13.052 -21.032,-11.752 -19.768,-10.333M-17.447,-15.552C-15.144,-11.751 -11.61,-8.736 -8.563,-5.544C-8.577,-5.527 -8.593,-5.511 -8.607,-5.494C-8.669,-5.596 -8.767,-5.676 -8.924,-5.676C-11.113,-5.677 -13.272,-5.745 -15.44,-5.986C-15.466,-6.054 -15.489,-6.123 -15.518,-6.191C-15.319,-6.206 -15.132,-6.39 -15.275,-6.595C-15.489,-6.9 -15.735,-7.19 -15.984,-7.48C-16.811,-10.085 -17.067,-12.841 -17.447,-15.552M-9.45,-4.641C-9.502,-4.763 -9.653,-4.834 -9.779,-4.716C-10.887,-3.671 -11.862,-2.429 -12.809,-1.177C-13.561,-2.502 -14.314,-3.828 -15.077,-5.148C-13.194,-4.88 -11.268,-4.869 -9.374,-4.871C-9.394,-4.792 -9.428,-4.719 -9.45,-4.641M-9.984,-3.266C-10.109,-3.043 -10.236,-2.822 -10.362,-2.599C-10.379,-2.569 -10.385,-2.54 -10.392,-2.511C-10.684,-2.111 -10.97,-1.709 -11.272,-1.339C-11.589,-0.949 -11.918,-0.57 -12.241,-0.183C-12.276,-0.244 -12.309,-0.301 -12.342,-0.361C-11.339,-1.544 -10.324,-2.765 -9.629,-4.115C-9.73,-3.822 -9.86,-3.546 -9.984,-3.266M-14.279,2.731C-15.014,3.518 -15.763,4.295 -16.488,5.081C-15.541,3.67 -14.523,2.311 -13.453,0.973C-13.264,0.738 -13.069,0.502 -12.871,0.266C-12.834,0.325 -12.801,0.383 -12.766,0.442C-13.285,1.057 -13.799,1.675 -14.318,2.291C-14.446,2.444 -14.395,2.628 -14.279,2.731M-22.902,7.334C-23.167,7.34 -23.432,7.34 -23.697,7.352C-25.304,5.543 -26.754,3.869 -27.979,1.723C-28.973,-0.017 -29.833,-1.83 -30.696,-3.639C-30.699,-3.679 -30.715,-3.711 -30.739,-3.732C-30.822,-3.904 -30.904,-4.077 -30.986,-4.25C-30.78,-4.234 -30.571,-4.224 -30.363,-4.202C-30.261,-4.189 -30.184,-4.217 -30.126,-4.265C-28.208,-2.105 -26.363,0.301 -23.957,1.884C-23.732,2.033 -23.475,1.862 -23.401,1.649C-23.39,1.702 -23.366,1.75 -23.338,1.793C-23.258,3.628 -23.266,5.534 -22.902,7.334M-23.373,1.086C-23.367,1.178 -23.363,1.272 -23.358,1.364C-23.374,1.394 -23.388,1.425 -23.396,1.458C-23.412,1.397 -23.44,1.34 -23.5,1.291C-25.748,-0.505 -27.579,-2.682 -29.587,-4.714C-26.175,-3.658 -21.834,-3.867 -18.22,-4.492C-19.701,-2.636 -21.012,-0.642 -22.846,0.892C-23.027,0.713 -23.392,0.764 -23.373,1.086M-20.449,6.192C-20.55,6.581 -20.651,6.967 -20.755,7.346C-21.201,7.33 -21.646,7.323 -22.091,7.322C-22.259,5.458 -22.45,3.586 -22.674,1.729C-20.466,-0.014 -18.885,-2.375 -17.177,-4.593C-18.498,-1.626 -19.319,1.758 -20.128,4.947C-20.259,5.284 -20.392,5.624 -20.497,5.962C-20.528,6.06 -20.498,6.133 -20.449,6.192M-18.4,5.682C-18.799,6.002 -19.218,6.295 -19.644,6.579C-19.23,5.69 -18.956,4.711 -18.714,3.745C-18.285,2.737 -17.903,1.698 -17.424,0.743C-17.281,0.456 -17.687,0.213 -17.856,0.489C-17.869,0.507 -17.879,0.526 -17.89,0.543C-17.387,-1.302 -16.843,-3.118 -16.147,-4.903C-16.14,-4.906 -16.134,-4.907 -16.127,-4.908C-15.993,-4.939 -15.93,-5.02 -15.896,-5.112C-15.085,-3.549 -14.228,-2.007 -13.325,-0.498C-13.727,0.037 -14.126,0.565 -14.531,1.076C-15.474,2.268 -16.374,3.487 -17.187,4.762C-17.643,4.964 -18.022,5.377 -18.4,5.682M-6.112,11.63C-9.47,9.41 -13.44,8.118 -17.518,7.588C-17.522,7.543 -17.533,7.502 -17.551,7.463C-15.696,5.109 -13.517,3.01 -11.602,0.704C-10.874,-0.173 -10.097,-1.177 -9.512,-2.258C-9.072,-2.818 -8.681,-3.41 -8.482,-4.039C-8.455,-4.125 -8.5,-4.207 -8.569,-4.257C-8.38,-4.537 -8.165,-4.816 -8.002,-5.114C-7.704,-5.11 -7.435,-5.501 -7.704,-5.788C-10.938,-9.239 -14.321,-12.441 -17.117,-16.281C-17.236,-16.446 -17.427,-16.46 -17.566,-16.39C-17.569,-16.403 -17.57,-16.417 -17.573,-16.431C-17.627,-16.781 -18.228,-16.7 -18.191,-16.347C-17.929,-13.792 -17.717,-11.207 -17.117,-8.712C-17.833,-9.439 -18.577,-10.149 -19.224,-10.876C-20.501,-12.306 -21.822,-13.856 -23.441,-14.921C-23.415,-14.972 -23.386,-15.021 -23.361,-15.071C-23.339,-15.114 -23.339,-15.156 -23.344,-15.196C-23.295,-15.193 -23.247,-15.189 -23.198,-15.187C-22.083,-15.14 -20.774,-15.037 -19.616,-15.284C-19.584,-15.275 -19.56,-15.255 -19.526,-15.255C-19.321,-15.258 -19.117,-15.262 -18.913,-15.253L-18.903,-15.246C-18.882,-15.23 -18.874,-15.216 -18.817,-15.171C-18.549,-14.951 -18.061,-15.245 -18.296,-15.572C-18.336,-15.625 -18.367,-15.692 -18.41,-15.755C-18.35,-15.839 -18.367,-15.943 -18.437,-16.016C-18.383,-16.242 -18.568,-16.505 -18.819,-16.505C-19.1,-16.505 -19.381,-16.511 -19.663,-16.501C-19.791,-16.498 -19.942,-16.432 -20,-16.309C-20.029,-16.244 -20.039,-16.193 -20.043,-16.14C-21.327,-16.115 -22.64,-15.959 -23.914,-16.005C-25.751,-16.074 -27.581,-16.246 -29.421,-16.246C-29.613,-16.246 -29.725,-16.126 -29.762,-15.985C-29.813,-15.968 -29.864,-15.943 -29.913,-15.897C-31.47,-14.455 -32.682,-12.464 -33.959,-10.783C-34.81,-9.664 -35.657,-8.541 -36.537,-7.445C-36.759,-7.167 -37.346,-6.289 -37.65,-6.049C-37.85,-6.056 -38.056,-5.896 -37.974,-5.661C-37.948,-5.586 -37.908,-5.527 -37.873,-5.463C-37.941,-5.404 -37.978,-5.314 -37.939,-5.199C-36.929,-2.205 -33.908,0.514 -31.764,2.694C-30.253,4.227 -28.522,5.922 -26.624,7.251C-28.897,6.737 -31.769,7.505 -34.352,8.813C-37.775,4.352 -42.489,0.677 -48.392,-1.713C-62.32,-7.351 -79.241,-3.396 -87.175,9.408C-87.24,9.401 -87.305,9.415 -87.356,9.467C-93.305,15.563 -94.49,25.628 -93.089,33.713C-91.442,43.213 -86.094,50.881 -77.867,55.871C-66.16,62.973 -50.772,61.646 -40.33,53.676C-38.963,54.904 -37.467,56.016 -35.808,56.951C-23.5,63.885 -8.684,61.547 -0.691,49.791C7.358,37.954 6.332,19.862 -6.112,11.63" style="fill:rgb(208,157,40);"/>
            </g>
            <g transform="matrix(-10.2018,0,0,10.6662,3799.37,492.809)">
                <path d="M-37.894,-5.431C-37.95,-5.378 -37.972,-5.298 -37.939,-5.199L-37.894,-5.093L-37.894,-5.431Z" style="fill:white;stroke:rgb(202,156,162);stroke-width:0.43px;"/>
            </g>
            <g transform="matrix(-10.2018,0,0,10.6662,3799.37,492.809)">
                <path d="M-37.894,-5.961C-37.977,-5.896 -38.019,-5.79 -37.974,-5.661L-37.894,-5.505L-37.894,-5.961Z" style="fill:white;stroke:rgb(202,156,162);stroke-width:0.43px;"/>
            </g>
            <g transform="matrix(3.23931,0,0,3.52787,-1298.9,-3033.02)">
                <path d="M1624.73,1025.77L1634.18,1025.77L1635.81,1025.27C1635.68,1024.96 1635.68,1024.58 1635.84,1024.27C1635.6,1024.26 1635.37,1024.25 1635.13,1024.24C1634.62,1024.28 1634.11,1024.31 1633.61,1024.37C1633.36,1025.08 1632.25,1025.52 1631.55,1024.89C1631.44,1024.83 1631.34,1024.76 1631.24,1024.69C1629.05,1024.99 1626.88,1025.34 1624.73,1025.77Z" style="fill:white;"/>
            </g>
            <g transform="matrix(3.23931,0,0,3.52787,-1298.9,-3033.02)">
                <path d="M1660.53,1025.77L1664,1025.77C1660.52,1024.93 1656.96,1024.37 1653.35,1024.05C1653.3,1024.07 1653.25,1024.1 1653.19,1024.13C1653.19,1024.21 1653.11,1024.28 1653.07,1024.37C1655.7,1024.67 1658.24,1025.13 1660.53,1025.77Z" style="fill:white;"/>
            </g>
            <g transform="matrix(3.23931,0,0,3.52787,-1298.9,-3033.02)">
                <path d="M1646,1021.59C1646.84,1021.61 1647.67,1021.61 1648.51,1021.65C1653.57,1016.18 1658.13,1011.12 1661.99,1004.63C1665.12,999.368 1667.83,993.887 1670.55,988.418C1670.56,988.297 1670.61,988.2 1670.68,988.137C1670.94,987.616 1671.2,987.093 1671.46,986.57C1670.81,986.619 1670.15,986.649 1669.5,986.716C1669.18,986.755 1668.94,986.67 1668.75,986.525C1662.71,993.056 1656.9,1000.33 1649.33,1005.12C1648.62,1005.57 1647.81,1005.05 1647.57,1004.4C1647.54,1004.57 1647.46,1004.71 1647.38,1004.84C1647.12,1010.39 1647.15,1016.15 1646,1021.59Z" style="fill:white;stroke:black;stroke-width:1.33px;stroke-linecap:round;stroke-miterlimit:1.5;"/>
            </g>
            <g transform="matrix(3.23931,0,0,3.52787,-1298.9,-3033.02)">
                <path d="M1638.28,1018.14C1638.6,1019.32 1638.91,1020.48 1639.24,1021.63C1640.64,1021.58 1642.05,1021.56 1643.45,1021.56C1643.98,1015.92 1644.58,1010.26 1645.28,1004.65C1638.33,999.378 1633.35,992.239 1627.97,985.533C1632.13,994.504 1634.72,1004.74 1637.27,1014.38C1637.68,1015.4 1638.1,1016.42 1638.43,1017.45C1638.53,1017.74 1638.43,1017.96 1638.28,1018.14Z" style="fill:white;stroke:black;stroke-width:1.33px;stroke-linecap:round;stroke-miterlimit:1.5;"/>
            </g>
            <g transform="matrix(3.23931,0,0,3.52787,-1298.9,-3033.02)">
                <path d="M1662.73,1014.73C1662.53,1014.71 1662.34,1014.63 1662.23,1014.44C1661.65,1013.46 1662.22,1012.29 1662.36,1011.24C1662.49,1010.25 1662.54,1009.25 1662.57,1008.24C1662.29,1008.72 1661.99,1009.23 1661.68,1009.75C1662,1009.85 1662.26,1010.11 1662.26,1010.54C1662.23,1012.44 1661.84,1015.32 1660.27,1016.63C1659.96,1016.89 1659.39,1016.83 1659.3,1016.39C1659.12,1015.53 1659.34,1014.87 1659.64,1014.04C1659.86,1013.42 1660.05,1012.81 1660.19,1012.19C1658.77,1014.45 1657.13,1016.75 1655.3,1018.75C1655.76,1018.73 1656.22,1019.01 1656.41,1019.43C1658.58,1017.98 1660.69,1016.39 1662.73,1014.73Z" style="fill:white;stroke:black;stroke-width:1.33px;stroke-linecap:round;stroke-miterlimit:1.5;"/>
            </g>
            <g transform="matrix(3.23931,0,0,3.52787,-1298.9,-3033.02)">
                <path d="M1631.82,1016.6C1633.08,1017.57 1634.4,1018.45 1635.74,1019.31C1634.44,1016.62 1633.58,1013.66 1632.81,1010.74C1631.46,1007.7 1630.26,1004.55 1628.75,1001.67C1628.3,1000.8 1629.58,1000.06 1630.11,1000.9C1630.15,1000.95 1630.18,1001.01 1630.22,1001.06C1628.63,995.483 1626.92,989.993 1624.73,984.596C1624.71,984.587 1624.69,984.584 1624.66,984.581C1624.24,984.487 1624.05,984.242 1623.94,983.964C1621.38,988.69 1618.68,993.352 1615.84,997.914C1617.11,999.532 1618.36,1001.13 1619.64,1002.67C1622.61,1006.28 1625.44,1009.96 1628,1013.82C1629.44,1014.43 1630.63,1015.68 1631.82,1016.6Z" style="fill:white;stroke:black;stroke-width:1.33px;stroke-linecap:round;stroke-miterlimit:1.5;"/>
            </g>
            <g transform="matrix(3.23931,0,0,3.52787,-1298.9,-3033.02)">
                <path d="M1618.85,1007.68C1621.16,1010.06 1623.52,1012.4 1625.8,1014.78C1622.82,1010.52 1619.61,1006.41 1616.24,1002.36C1615.65,1001.65 1615.04,1000.94 1614.41,1000.22C1614.29,1000.4 1614.19,1000.58 1614.08,1000.76C1615.72,1002.62 1617.33,1004.48 1618.97,1006.35C1619.37,1006.81 1619.21,1007.37 1618.85,1007.68Z" style="fill:white;stroke:black;stroke-width:1.33px;stroke-linecap:round;stroke-miterlimit:1.5;"/>
            </g>
            <g transform="matrix(3.23931,0,0,3.52787,-1298.9,-3033.02)">
                <path d="M1668.69,1009.63C1668.49,1009.62 1668.29,1009.5 1668.21,1009.26C1667.4,1007.12 1667.83,1004.58 1667.99,1002.35C1668.11,1000.45 1668.44,998.582 1668.79,996.714C1668.14,998.011 1667.47,999.287 1666.81,1000.57C1667.12,1000.66 1667.39,1000.87 1667.4,1001.28C1667.44,1002.82 1667.47,1004.35 1667.5,1005.88C1667.54,1007.3 1667.85,1008.87 1667.06,1010.13C1666.82,1010.5 1666.25,1010.5 1666.01,1010.13C1665.31,1009.02 1665.51,1007.8 1665.54,1006.54C1665.58,1005.3 1665.6,1004.06 1665.63,1002.81C1665.13,1003.73 1664.61,1004.63 1664.1,1005.55C1664.34,1005.69 1664.51,1005.92 1664.52,1006.26C1664.55,1007.93 1664.58,1009.59 1664.45,1011.24C1664.4,1011.98 1664.35,1012.91 1664.03,1013.67C1665.62,1012.34 1667.18,1010.98 1668.69,1009.63Z" style="fill:white;stroke:black;stroke-width:1.33px;stroke-linecap:round;stroke-miterlimit:1.5;"/>
            </g>
            <g transform="matrix(3.23931,0,0,3.52787,-1298.9,-3033.02)">
                <path d="M1672.51,1006.22C1673.89,1004.99 1675.34,1003.7 1676.78,1002.38C1675.7,999.535 1675.4,996.366 1674.58,993.434C1674.08,991.653 1673.48,989.89 1672.83,988.149C1672.43,989.059 1672.01,989.963 1671.6,990.867C1672.07,995.997 1673.33,1001.45 1672.12,1006.37C1672.03,1006.75 1671.43,1006.74 1671.34,1006.37C1670.27,1002.34 1670.29,997.827 1670.41,993.464C1670.14,994.017 1669.85,994.561 1669.58,995.118C1669.83,995.148 1670.05,995.314 1670.01,995.583C1669.71,997.83 1669.72,1000.09 1669.72,1002.35C1669.72,1004.52 1670.07,1006.95 1669.37,1009.03C1670.43,1008.08 1671.49,1007.13 1672.51,1006.22Z" style="fill:white;stroke:black;stroke-width:1.33px;stroke-linecap:round;stroke-miterlimit:1.5;"/>
            </g>
            <g transform="matrix(3.23931,0,0,3.52787,-1298.9,-3033.02)">
                <path d="M1647.49,1002.7C1647.47,1002.98 1647.45,1003.27 1647.44,1003.54C1647.49,1003.63 1647.53,1003.73 1647.56,1003.83C1647.61,1003.64 1647.7,1003.47 1647.89,1003.32C1654.97,997.893 1660.73,991.311 1667.06,985.168C1656.31,988.36 1642.64,987.728 1631.26,985.839C1635.92,991.45 1640.05,997.479 1645.83,1002.12C1646.4,1001.58 1647.55,1001.73 1647.49,1002.7Z" style="fill:white;stroke:black;stroke-width:1.33px;stroke-linecap:round;stroke-miterlimit:1.5;"/>
            </g>
            <g transform="matrix(3.23931,0,0,3.52787,-1298.9,-3033.02)">
                <path d="M1690.96,984.805C1689.3,985.555 1687.19,985.721 1685.46,985.893C1681.83,986.25 1678.19,986.244 1674.55,986.383C1676.67,990.912 1678.61,996.016 1678.53,1000.74C1683.53,996.031 1688.38,990.737 1690.96,984.805Z" style="fill:white;stroke:black;stroke-width:1.33px;stroke-linecap:round;stroke-miterlimit:1.5;"/>
            </g>
            <g transform="matrix(3.23931,0,0,3.52787,-1298.9,-3033.02)">
                <path d="M1605.32,989.545C1605.71,990.22 1606.11,990.888 1606.51,991.562C1606.56,991.653 1606.58,991.74 1606.6,991.828C1607.52,993.037 1608.42,994.253 1609.38,995.372C1610.37,996.551 1611.41,997.697 1612.43,998.867C1612.54,998.682 1612.64,998.51 1612.75,998.328C1609.59,994.752 1606.39,991.06 1604.2,986.979C1604.52,987.864 1604.93,988.699 1605.32,989.545Z" style="fill:white;stroke:black;stroke-width:1.33px;stroke-linecap:round;stroke-miterlimit:1.5;"/>
            </g>
            <g transform="matrix(3.23931,0,0,3.52787,-1298.9,-3033.02)">
                <path d="M1603.64,985.388C1603.8,985.019 1604.28,984.805 1604.67,985.161C1608.16,988.321 1611.23,992.076 1614.22,995.861C1616.58,991.855 1618.96,987.846 1621.36,983.855C1615.43,984.666 1609.36,984.699 1603.4,984.693C1603.46,984.932 1603.57,985.152 1603.64,985.388Z" style="fill:white;stroke:black;stroke-width:1.33px;stroke-linecap:round;stroke-miterlimit:1.5;"/>
            </g>
            <g transform="matrix(3.23931,0,0,3.52787,-1298.9,-3033.02)">
                <path d="M1636.13,968.179C1633.33,971.199 1630.26,975.484 1626.7,978.38C1626.73,978.57 1626.72,978.77 1626.61,978.985C1626.27,979.62 1625.92,980.251 1625.58,980.889C1625.61,980.932 1625.63,980.98 1625.65,981.019C1625.79,981.025 1625.91,981.086 1626.03,981.131C1626.38,980.932 1626.83,980.932 1627.22,981.322C1627.71,981.818 1628.17,982.338 1628.64,982.852C1641.73,984.753 1656.61,985.957 1669.24,982.205C1666.06,978.77 1663.17,975.118 1660.31,971.432C1656.52,966.546 1651.98,961.488 1648.73,956.14C1644.31,959.958 1640.11,963.889 1636.13,968.179Z" style="fill:white;stroke:black;stroke-width:1.33px;stroke-linecap:round;stroke-miterlimit:1.5;"/>
            </g>
            <g transform="matrix(3.23931,0,0,3.52787,-1298.9,-3033.02)">
                <path d="M1682.75,973.068C1677.88,967.006 1673.22,960.772 1668.15,954.873C1670.14,964.406 1673.18,973.718 1674.81,983.323C1674.81,983.35 1674.82,983.378 1674.82,983.405C1674.84,983.526 1674.87,983.65 1674.89,983.774C1676.37,983.765 1677.85,983.813 1679.2,983.798C1681.89,983.759 1688.12,984.339 1690.8,982.398C1687.71,980.678 1683.82,974.398 1682.75,973.068Z" style="fill:white;stroke:black;stroke-width:1.33px;stroke-linecap:round;stroke-miterlimit:1.5;"/>
            </g>
            <g transform="matrix(3.23931,0,0,3.52787,-1298.9,-3033.02)">
                <path d="M1693.22,982.776L1693.22,983.001L1693.15,982.903L1693.22,982.776Z" style="fill:white;stroke:rgb(202,156,162);stroke-width:1.33px;stroke-linecap:round;stroke-miterlimit:1.5;"/>
            </g>
            <g transform="matrix(3.23931,0,0,3.52787,-1298.9,-3033.02)">
                <path d="M1628.82,952.4C1621.57,963.892 1610.44,973.007 1600.84,982.658C1600.89,982.709 1600.94,982.758 1600.98,982.809C1601.18,982.501 1601.49,982.259 1601.98,982.259C1608.87,982.256 1615.67,982.05 1622.5,981.322C1622.58,981.116 1622.66,980.908 1622.75,980.702C1622.12,980.657 1621.53,980.1 1621.98,979.48C1622.66,978.558 1623.43,977.682 1624.22,976.805C1626.82,968.929 1627.63,960.596 1628.82,952.4Z" style="fill:white;stroke:black;stroke-width:1.33px;stroke-linecap:round;stroke-miterlimit:1.5;"/>
            </g>
            <g transform="matrix(3.23931,0,0,3.52787,-1298.9,-3033.02)">
                <path d="M1665.55,952.581C1659.93,952.744 1654.32,953.144 1648.7,953.41C1648.76,953.461 1648.82,953.528 1648.87,953.579C1648.91,953.552 1648.95,953.525 1649,953.497C1649.88,953.008 1650.88,954.172 1650.16,954.861C1653.74,958.422 1656.6,962.888 1659.6,966.84C1663.49,971.967 1667.54,976.953 1671.76,981.836C1671.92,981.833 1672.1,981.872 1672.24,981.954C1670.3,972.097 1666.95,962.537 1665.55,952.581Z" style="fill:white;stroke:black;stroke-width:1.33px;stroke-linecap:round;stroke-miterlimit:1.5;"/>
            </g>
            <g transform="matrix(3.23931,0,0,3.52787,-1295.66,-3033.02)">
                <path d="M1612.82,1025.77C1618.08,1024.16 1623.53,1023.05 1629.05,1022.36C1629.06,1022.23 1629.09,1022.1 1629.15,1021.98C1623.31,1014.87 1616.45,1008.52 1610.41,1001.55C1608.12,998.897 1605.67,995.861 1603.83,992.593C1602.45,990.9 1601.22,989.11 1600.59,987.208C1600.5,986.948 1600.64,986.7 1600.86,986.549C1600.27,985.703 1599.59,984.859 1599.08,983.958C1598.14,983.97 1597.29,982.788 1598.14,981.92C1608.32,971.487 1618.98,961.806 1627.78,950.196C1628.16,949.697 1628.76,949.655 1629.2,949.866C1629.21,949.827 1629.21,949.785 1629.22,949.742C1629.39,948.684 1631.28,948.929 1631.17,949.996C1630.34,957.721 1629.67,965.537 1627.78,973.08C1630.04,970.882 1632.38,968.735 1634.42,966.537C1638.44,962.214 1642.6,957.528 1647.7,954.308C1647.62,954.153 1647.53,954.005 1647.45,953.854C1647.38,953.724 1647.38,953.597 1647.39,953.476C1647.24,953.485 1647.09,953.497 1646.93,953.503C1643.42,953.645 1639.3,953.957 1635.65,953.21C1635.55,953.237 1635.48,953.298 1635.37,953.298C1634.72,953.289 1634.08,953.277 1633.44,953.304L1633.41,953.325C1633.34,953.373 1633.32,953.416 1633.14,953.552C1632.29,954.217 1630.76,953.328 1631.5,952.339C1631.62,952.179 1631.72,951.977 1631.86,951.786C1631.67,951.532 1631.72,951.218 1631.94,950.997C1631.77,950.314 1632.35,949.519 1633.14,949.519C1634.03,949.519 1634.91,949.5 1635.8,949.531C1636.2,949.54 1636.68,949.739 1636.86,950.111C1636.95,950.308 1636.99,950.462 1637,950.622C1641.04,950.698 1645.18,951.169 1649.19,951.03C1654.98,950.822 1660.74,950.302 1666.53,950.302C1667.14,950.302 1667.49,950.664 1667.61,951.091C1667.77,951.142 1667.93,951.218 1668.08,951.357C1672.99,955.716 1676.8,961.736 1680.83,966.818C1683.51,970.202 1686.17,973.597 1688.94,976.911C1689.64,977.751 1691.49,980.406 1692.45,981.131C1692.73,981.122 1693.02,981.215 1693.22,981.398L1693.15,982.903L1693.22,983.001L1693.22,984.021C1689.95,992.952 1680.58,1001.05 1673.91,1007.57C1669.15,1012.2 1663.7,1017.33 1657.72,1021.34C1664.69,1019.83 1673.45,1021.99 1681.41,1025.77L1664,1025.77C1663.51,1025.65 1663.02,1025.54 1662.53,1025.43C1659.52,1024.78 1656.45,1024.33 1653.35,1024.05C1653.3,1024.07 1653.25,1024.1 1653.19,1024.13C1653.19,1024.21 1653.11,1024.28 1653.07,1024.37C1655.7,1024.67 1658.24,1025.13 1660.53,1025.77L1634.18,1025.77L1635.81,1025.27C1635.68,1024.96 1635.68,1024.58 1635.84,1024.27C1635.6,1024.26 1635.37,1024.25 1635.13,1024.24C1634.62,1024.28 1634.11,1024.31 1633.61,1024.37C1633.36,1025.08 1632.25,1025.52 1631.55,1024.89C1631.44,1024.83 1631.34,1024.76 1631.24,1024.69C1629.05,1024.99 1626.88,1025.34 1624.73,1025.77L1612.82,1025.77Z" style="fill:rgb(202,156,162);"/>
            </g>
            <g transform="matrix(3.23931,0,0,3.52787,-1298.9,-3033.02)">
                <path d="M1646,1021.59C1646.84,1021.61 1647.67,1021.61 1648.51,1021.65C1653.57,1016.18 1658.13,1011.12 1661.99,1004.63C1665.12,999.368 1667.83,993.887 1670.55,988.418C1670.56,988.297 1670.61,988.2 1670.68,988.137C1670.94,987.616 1671.2,987.093 1671.46,986.57C1670.81,986.619 1670.15,986.649 1669.5,986.716C1669.18,986.755 1668.94,986.67 1668.75,986.525C1662.71,993.056 1656.9,1000.33 1649.33,1005.12C1648.62,1005.57 1647.81,1005.05 1647.57,1004.4C1647.54,1004.57 1647.46,1004.71 1647.38,1004.84C1647.12,1010.39 1647.15,1016.15 1646,1021.59Z" style="fill:white;"/>
            </g>
            <g transform="matrix(3.23931,0,0,3.52787,-1298.9,-3033.02)">
                <path d="M1638.28,1018.14C1638.6,1019.32 1638.91,1020.48 1639.24,1021.63C1640.64,1021.58 1642.05,1021.56 1643.45,1021.56C1643.98,1015.92 1644.58,1010.26 1645.28,1004.65C1638.33,999.378 1633.35,992.239 1627.97,985.533C1632.13,994.504 1634.72,1004.74 1637.27,1014.38C1637.68,1015.4 1638.1,1016.42 1638.43,1017.45C1638.53,1017.74 1638.43,1017.96 1638.28,1018.14Z" style="fill:white;"/>
            </g>
            <g transform="matrix(3.23931,0,0,3.52787,-1298.9,-3033.02)">
                <path d="M1662.73,1014.73C1662.53,1014.71 1662.34,1014.63 1662.23,1014.44C1661.65,1013.46 1662.22,1012.29 1662.36,1011.24C1662.49,1010.25 1662.54,1009.25 1662.57,1008.24C1662.29,1008.72 1661.99,1009.23 1661.68,1009.75C1662,1009.85 1662.26,1010.11 1662.26,1010.54C1662.23,1012.44 1661.84,1015.32 1660.27,1016.63C1659.96,1016.89 1659.39,1016.83 1659.3,1016.39C1659.12,1015.53 1659.34,1014.87 1659.64,1014.04C1659.86,1013.42 1660.05,1012.81 1660.19,1012.19C1658.77,1014.45 1657.13,1016.75 1655.3,1018.75C1655.76,1018.73 1656.22,1019.01 1656.41,1019.43C1658.58,1017.98 1660.69,1016.39 1662.73,1014.73Z" style="fill:white;"/>
            </g>
            <g transform="matrix(3.23931,0,0,3.52787,-1298.9,-3033.02)">
                <path d="M1631.82,1016.6C1633.08,1017.57 1634.4,1018.45 1635.74,1019.31C1634.44,1016.62 1633.58,1013.66 1632.81,1010.74C1631.46,1007.7 1630.26,1004.55 1628.75,1001.67C1628.3,1000.8 1629.58,1000.06 1630.11,1000.9C1630.15,1000.95 1630.18,1001.01 1630.22,1001.06C1628.63,995.483 1626.92,989.993 1624.73,984.596C1624.71,984.587 1624.69,984.584 1624.66,984.581C1624.24,984.487 1624.05,984.242 1623.94,983.964C1621.38,988.69 1618.68,993.352 1615.84,997.914C1617.11,999.532 1618.36,1001.13 1619.64,1002.67C1622.61,1006.28 1625.44,1009.96 1628,1013.82C1629.44,1014.43 1630.63,1015.68 1631.82,1016.6Z" style="fill:white;"/>
            </g>
            <g transform="matrix(3.23931,0,0,3.52787,-1298.9,-3033.02)">
                <path d="M1618.85,1007.68C1621.16,1010.06 1623.52,1012.4 1625.8,1014.78C1622.82,1010.52 1619.61,1006.41 1616.24,1002.36C1615.65,1001.65 1615.04,1000.94 1614.41,1000.22C1614.29,1000.4 1614.19,1000.58 1614.08,1000.76C1615.72,1002.62 1617.33,1004.48 1618.97,1006.35C1619.37,1006.81 1619.21,1007.37 1618.85,1007.68Z" style="fill:white;"/>
            </g>
            <g transform="matrix(3.23931,0,0,3.52787,-1298.9,-3033.02)">
                <path d="M1668.69,1009.63C1668.49,1009.62 1668.29,1009.5 1668.21,1009.26C1667.4,1007.12 1667.83,1004.58 1667.99,1002.35C1668.11,1000.45 1668.44,998.582 1668.79,996.714C1668.14,998.011 1667.47,999.287 1666.81,1000.57C1667.12,1000.66 1667.39,1000.87 1667.4,1001.28C1667.44,1002.82 1667.47,1004.35 1667.5,1005.88C1667.54,1007.3 1667.85,1008.87 1667.06,1010.13C1666.82,1010.5 1666.25,1010.5 1666.01,1010.13C1665.31,1009.02 1665.51,1007.8 1665.54,1006.54C1665.58,1005.3 1665.6,1004.06 1665.63,1002.81C1665.13,1003.73 1664.61,1004.63 1664.1,1005.55C1664.34,1005.69 1664.51,1005.92 1664.52,1006.26C1664.55,1007.93 1664.58,1009.59 1664.45,1011.24C1664.4,1011.98 1664.35,1012.91 1664.03,1013.67C1665.62,1012.34 1667.18,1010.98 1668.69,1009.63Z" style="fill:white;"/>
            </g>
            <g transform="matrix(3.23931,0,0,3.52787,-1298.9,-3033.02)">
                <path d="M1672.51,1006.22C1673.89,1004.99 1675.34,1003.7 1676.78,1002.38C1675.7,999.535 1675.4,996.366 1674.58,993.434C1674.08,991.653 1673.48,989.89 1672.83,988.149C1672.43,989.059 1672.01,989.963 1671.6,990.867C1672.07,995.997 1673.33,1001.45 1672.12,1006.37C1672.03,1006.75 1671.43,1006.74 1671.34,1006.37C1670.27,1002.34 1670.29,997.827 1670.41,993.464C1670.14,994.017 1669.85,994.561 1669.58,995.118C1669.83,995.148 1670.05,995.314 1670.01,995.583C1669.71,997.83 1669.72,1000.09 1669.72,1002.35C1669.72,1004.52 1670.07,1006.95 1669.37,1009.03C1670.43,1008.08 1671.49,1007.13 1672.51,1006.22Z" style="fill:white;"/>
            </g>
            <g transform="matrix(3.23931,0,0,3.52787,-1298.9,-3033.02)">
                <path d="M1647.49,1002.7C1647.47,1002.98 1647.45,1003.27 1647.44,1003.54C1647.49,1003.63 1647.53,1003.73 1647.56,1003.83C1647.61,1003.64 1647.7,1003.47 1647.89,1003.32C1654.97,997.893 1660.73,991.311 1667.06,985.168C1656.31,988.36 1642.64,987.728 1631.26,985.839C1635.92,991.45 1640.05,997.479 1645.83,1002.12C1646.4,1001.58 1647.55,1001.73 1647.49,1002.7Z" style="fill:white;"/>
            </g>
            <g transform="matrix(3.23931,0,0,3.52787,-1298.9,-3033.02)">
                <path d="M1690.96,984.805C1689.3,985.555 1687.19,985.721 1685.46,985.893C1681.83,986.25 1678.19,986.244 1674.55,986.383C1676.67,990.912 1678.61,996.016 1678.53,1000.74C1683.53,996.031 1688.38,990.737 1690.96,984.805Z" style="fill:white;"/>
            </g>
            <g transform="matrix(3.23931,0,0,3.52787,-1298.9,-3033.02)">
                <path d="M1605.32,989.545C1605.71,990.22 1606.11,990.888 1606.51,991.562C1606.56,991.653 1606.58,991.74 1606.6,991.828C1607.52,993.037 1608.42,994.253 1609.38,995.372C1610.37,996.551 1611.41,997.697 1612.43,998.867C1612.54,998.682 1612.64,998.51 1612.75,998.328C1609.59,994.752 1606.39,991.06 1604.2,986.979C1604.52,987.864 1604.93,988.699 1605.32,989.545Z" style="fill:white;"/>
            </g>
            <g transform="matrix(3.23931,0,0,3.52787,-1298.9,-3033.02)">
                <path d="M1603.64,985.388C1603.8,985.019 1604.28,984.805 1604.67,985.161C1608.16,988.321 1611.23,992.076 1614.22,995.861C1616.58,991.855 1618.96,987.846 1621.36,983.855C1615.43,984.666 1609.36,984.699 1603.4,984.693C1603.46,984.932 1603.57,985.152 1603.64,985.388Z" style="fill:white;"/>
            </g>
            <g transform="matrix(3.23931,0,0,3.52787,-1298.9,-3033.02)">
                <path d="M1636.13,968.179C1633.33,971.199 1630.26,975.484 1626.7,978.38C1626.73,978.57 1626.72,978.77 1626.61,978.985C1626.27,979.62 1625.92,980.251 1625.58,980.889C1625.61,980.932 1625.63,980.98 1625.65,981.019C1625.79,981.025 1625.91,981.086 1626.03,981.131C1626.38,980.932 1626.83,980.932 1627.22,981.322C1627.71,981.818 1628.17,982.338 1628.64,982.852C1641.73,984.753 1656.61,985.957 1669.24,982.205C1666.06,978.77 1663.17,975.118 1660.31,971.432C1656.52,966.546 1651.98,961.488 1648.73,956.14C1644.31,959.958 1640.11,963.889 1636.13,968.179Z" style="fill:white;"/>
            </g>
            <g transform="matrix(3.23931,0,0,3.52787,-1298.9,-3033.02)">
                <path d="M1682.75,973.068C1677.88,967.006 1673.22,960.772 1668.15,954.873C1670.14,964.406 1673.18,973.718 1674.81,983.323C1674.81,983.35 1674.82,983.378 1674.82,983.405C1674.84,983.526 1674.87,983.65 1674.89,983.774C1676.37,983.765 1677.85,983.813 1679.2,983.798C1681.89,983.759 1688.12,984.339 1690.8,982.398C1687.71,980.678 1683.82,974.398 1682.75,973.068Z" style="fill:white;"/>
            </g>
            <g transform="matrix(3.23931,0,0,3.52787,-1298.9,-3033.02)">
                <path d="M1628.82,952.4C1621.57,963.892 1610.44,973.007 1600.84,982.658C1600.89,982.709 1600.94,982.758 1600.98,982.809C1601.18,982.501 1601.49,982.259 1601.98,982.259C1608.87,982.256 1615.67,982.05 1622.5,981.322C1622.58,981.116 1622.66,980.908 1622.75,980.702C1622.12,980.657 1621.53,980.1 1621.98,979.48C1622.66,978.558 1623.43,977.682 1624.22,976.805C1626.82,968.929 1627.63,960.596 1628.82,952.4Z" style="fill:white;"/>
            </g>
            <g transform="matrix(3.23931,0,0,3.52787,-1298.9,-3033.02)">
                <path d="M1665.55,952.581C1659.93,952.744 1654.32,953.144 1648.7,953.41C1648.76,953.461 1648.82,953.528 1648.87,953.579C1648.91,953.552 1648.95,953.525 1649,953.497C1649.88,953.008 1650.88,954.172 1650.16,954.861C1653.74,958.422 1656.6,962.888 1659.6,966.84C1663.49,971.967 1667.54,976.953 1671.76,981.836C1671.92,981.833 1672.1,981.872 1672.24,981.954C1670.3,972.097 1666.95,962.537 1665.55,952.581Z" style="fill:white;"/>
            </g>
            <g transform="matrix(6.15311,8.50773,-8.13727,6.43324,4083.68,1076.23)">
                <path d="M2.145,-4.505C2.156,-4.857 2.69,-4.785 2.682,-4.441C2.646,-2.551 2.896,-0.279 2.145,1.495C2.108,1.579 1.984,1.565 1.971,1.476C1.667,-0.444 2.075,-2.571 2.145,-4.505" style="fill:rgb(208,157,40);"/>
            </g>
            <g transform="matrix(-10.2018,0,0,10.6662,4012.94,1099.55)">
                <path d="M0,-0.412C-0.611,-0.557 -1.205,-0.74 -1.794,-0.961C-1.926,-1.01 -2.021,-0.787 -1.89,-0.73C-0.825,-0.277 0.537,0.598 1.732,0.193C1.825,0.162 1.818,0.047 1.732,0.012C1.187,-0.207 0.572,-0.273 0,-0.412" style="fill:rgb(208,157,40);"/>
            </g>
            <g transform="matrix(0.766666,10.636,-10.1729,0.801569,3951.83,1074.7)">
                <path d="M1.033,-1.589C1.016,-1.731 1.225,-1.776 1.254,-1.633C1.429,-0.747 1.561,0.237 1.033,1.033C0.974,1.122 0.843,1.066 0.846,0.967C0.873,0.091 1.14,-0.698 1.033,-1.589" style="fill:rgb(208,157,40);"/>
            </g>
            <g transform="matrix(-10.2018,0,0,10.6662,3924.71,1078.22)">
                <path d="M0,-0.527C-0.505,-0.474 -1.015,-0.466 -1.522,-0.453C-1.78,-0.447 -1.78,-0.058 -1.522,-0.052C-0.623,-0.031 0.569,0.127 1.36,-0.394C1.456,-0.459 1.41,-0.584 1.305,-0.597C0.87,-0.654 0.434,-0.572 0,-0.527" style="fill:rgb(208,157,40);"/>
            </g>
            <g transform="matrix(-10.2018,0,0,10.6662,3848.9,698.061)">
                <path d="M0,0.096C0.062,0.096 0.062,0 0,0C-0.062,0 -0.062,0.096 0,0.096" style="fill:rgb(208,157,40);"/>
            </g>
            <g transform="matrix(-10.2014,0.0901973,-0.0862697,-10.6658,3834.52,726.219)">
                <path d="M0.002,-0L0.002,0.473L0.002,-0Z" style="fill:rgb(208,157,40);"/>
            </g>
            <g transform="matrix(9.25322,4.49138,-4.2958,9.67448,3790.38,775.793)">
                <path d="M1.544,-7.302C1.279,-4.745 1.602,-2.274 2.035,0.24C2.084,0.521 1.637,0.677 1.544,0.393C0.722,-2.134 0.728,-4.739 1.192,-7.336C1.231,-7.556 1.568,-7.532 1.544,-7.302" style="fill:rgb(208,157,40);"/>
            </g>
            <g transform="matrix(6.61421,8.12073,-7.76712,6.91533,4500.94,1042.92)">
                <path d="M3.131,-6.742C3.07,-7.071 3.628,-7.191 3.704,-6.865C4.345,-4.122 4.499,-0.824 3.131,1.735C3.004,1.975 2.591,1.873 2.658,1.585C3.329,-1.215 3.66,-3.88 3.131,-6.742" style="fill:rgb(208,157,40);"/>
            </g>
            <g transform="matrix(6.42986,8.28099,-7.92041,6.72258,4462.3,1069.78)">
                <path d="M1.988,-4.218C1.964,-4.552 2.464,-4.605 2.502,-4.272C2.713,-2.451 2.745,-0.442 1.988,1.258C1.917,1.424 1.619,1.403 1.619,1.201C1.644,-0.624 2.119,-2.37 1.988,-4.218" style="fill:rgb(208,157,40);"/>
            </g>
            <g transform="matrix(6.25509,8.42604,-8.05914,6.53986,4424.13,1073.95)">
                <path d="M2.259,-4.522C2.292,-4.862 2.787,-4.783 2.775,-4.452C2.71,-2.641 3.036,-0.43 2.259,1.263C2.161,1.472 1.803,1.458 1.788,1.2C1.671,-0.66 2.075,-2.667 2.259,-4.522" style="fill:rgb(208,157,40);"/>
            </g>
            <g transform="matrix(5.14936,9.20775,-8.80682,5.38379,4403.58,1081.35)">
                <path d="M0.98,-1.728C1.052,-2.059 1.546,-1.921 1.486,-1.594C1.334,-0.806 1.283,-0.01 0.98,0.74C0.917,0.899 0.664,0.895 0.667,0.699C0.678,-0.123 0.809,-0.925 0.98,-1.728" style="fill:rgb(208,157,40);"/>
            </g>
            <g transform="matrix(-5.56883,8.9369,-8.54775,-5.82236,4628.31,531.624)">
                <path d="M4.722,-2.527C3.819,1.072 3.442,5.494 4.785,9.019C4.799,9.06 4.739,9.077 4.722,9.038C3.143,5.316 3.041,1.152 4.42,-2.634C4.483,-2.808 4.767,-2.704 4.722,-2.527" style="fill:rgb(208,157,40);"/>
            </g>
            <g transform="matrix(4.55945,9.54167,-9.12619,4.76702,4202.59,513.818)">
                <path d="M4.982,-7.805C4.458,-4.014 4.277,-0.469 5.26,3.257C5.304,3.421 5.077,3.549 4.982,3.392C2.972,0.073 3.807,-4.316 4.484,-7.903C4.545,-8.228 5.026,-8.126 4.982,-7.805" style="fill:rgb(208,157,40);"/>
            </g>
            <g transform="matrix(10.2001,-0.192984,0.184581,10.6645,4154.49,697.381)">
                <path d="M0.082,-1.204C0.068,-0.779 0.086,-0.373 0.15,0.049C0.156,0.094 0.098,0.108 0.082,0.067C-0.077,-0.352 -0.083,-0.764 -0.085,-1.207C-0.085,-1.314 0.085,-1.311 0.082,-1.204" style="fill:rgb(208,157,40);"/>
            </g>
            <g transform="matrix(10.1995,-0.226218,0.216368,10.6638,4150.34,716.377)">
                <path d="M0.162,-1.906C0.268,-1.236 0.257,-0.567 0.323,0.105C0.332,0.197 0.183,0.21 0.162,0.121C0.014,-0.528 -0.046,-1.168 -0.157,-1.825C-0.191,-2.033 0.129,-2.114 0.162,-1.906" style="fill:rgb(208,157,40);"/>
            </g>
            <g transform="matrix(10.0584,-1.78216,1.70455,10.5163,4145.69,778.386)">
                <path d="M-0.204,-3.335C-0.079,-2.225 0.208,-1.112 0.202,0.009C0.201,0.24 -0.11,0.339 -0.204,0.106C-0.631,-0.969 -0.614,-2.151 -0.668,-3.289C-0.681,-3.586 -0.238,-3.634 -0.204,-3.335" style="fill:rgb(208,157,40);"/>
            </g>
            <g transform="matrix(-9.94877,-2.36067,2.25788,-10.4017,4138.21,807.078)">
                <path d="M-0.016,-0.002C-0.006,0.044 0.005,0.089 0.017,0.136C0.023,0.157 -0.012,0.165 -0.016,0.143C-0.026,0.096 -0.036,0.051 -0.045,0.005C-0.05,-0.014 -0.021,-0.021 -0.016,-0.002" style="fill:rgb(208,157,40);"/>
            </g>
            <g transform="matrix(-10.2018,0,0,10.6662,4258.52,956.641)">
                <path d="M0,-3.643C-0.019,-3.841 -0.285,-3.839 -0.306,-3.643C-0.428,-2.527 -0.909,-0.847 -0.118,0.107C-0.044,0.198 0.101,0.139 0.13,0.042C0.29,-0.478 0.171,-1.031 0.142,-1.566C0.105,-2.261 0.065,-2.949 0,-3.643" style="fill:rgb(208,157,40);"/>
            </g>
            <g transform="matrix(-10.1903,0.505847,-0.483821,-10.6542,4253.35,974.816)">
                <path d="M0.084,-0.003C0.128,-0.097 0.245,-0.091 0.278,0.007C0.643,1.044 0.268,2.344 0.084,3.392C0.039,3.645 -0.363,3.634 -0.323,3.373C-0.159,2.294 -0.379,0.998 0.084,-0.003" style="fill:rgb(208,157,40);"/>
            </g>
            <g transform="matrix(-10.2018,0,0,10.6662,4236.36,946.143)">
                <path d="M0,4.35C0.006,3.692 -0.185,3.051 -0.28,2.403C-0.395,1.612 -0.451,0.801 -0.411,0.004C-0.397,-0.3 -0.841,-0.284 -0.876,0.004C-1.045,1.395 -1.2,3.219 -0.416,4.463C-0.299,4.65 -0.002,4.577 0,4.35" style="fill:rgb(208,157,40);"/>
            </g>
            <g transform="matrix(9.91919,2.49301,-2.38445,10.3708,4758.34,916.932)">
                <path d="M0.999,-9.625C1.891,-6.542 2.209,-3.15 1.442,-0.003C1.379,0.254 1.003,0.171 0.999,-0.076C0.957,-3.26 1.221,-6.388 0.718,-9.558C0.689,-9.741 0.947,-9.806 0.999,-9.625" style="fill:rgb(208,157,40);"/>
            </g>
            <g transform="matrix(9.07033,4.88218,-4.66959,9.48327,4776.08,942.406)">
                <path d="M0.592,-2.826C0.547,-3.176 1.084,-3.293 1.132,-2.939C1.295,-1.758 0.981,-0.741 0.592,0.362C0.504,0.61 0.131,0.49 0.204,0.237C0.49,-0.756 0.727,-1.787 0.592,-2.826" style="fill:rgb(208,157,40);"/>
            </g>
            <g transform="matrix(-8.60899,-5.72287,5.47368,-9.00093,3746.38,686.163)">
                <path d="M-2.787,-0.798C-2.827,-1.084 -2.381,-1.142 -2.299,-0.88C-1.206,2.593 -2.202,6.233 -2.787,9.699C-2.828,9.945 -3.19,9.857 -3.159,9.617C-2.717,6.118 -2.305,2.716 -2.787,-0.798" style="fill:rgb(208,157,40);"/>
            </g>
            <g transform="matrix(10.0637,1.74857,-1.67243,10.5219,3721.08,789.093)">
                <path d="M1.123,-12.525C1.205,-12.882 1.774,-12.838 1.702,-12.465C0.911,-8.275 0.813,-4.186 1.123,0.06C1.149,0.409 0.662,0.498 0.584,0.149C-0.35,-4.005 0.188,-8.42 1.123,-12.525" style="fill:rgb(208,157,40);"/>
            </g>
            <g transform="matrix(-6.51277,8.20986,-7.85237,-6.80927,4663.87,483.293)">
                <path d="M1.84,-0.807C2.13,0.755 2.319,2.456 2.38,4.042C2.392,4.343 1.976,4.527 1.84,4.204C1.205,2.702 1.163,0.832 1.133,-0.781C1.125,-1.198 1.769,-1.192 1.84,-0.807" style="fill:rgb(208,157,40);"/>
            </g>
            <g transform="matrix(8.92587,-5.16502,4.94012,9.33223,3837.57,1098.4)">
                <path d="M-1.936,-7.094C-2.295,-4.574 -1.779,-2.154 -1.363,0.32C-1.299,0.697 -1.794,0.847 -1.936,0.485C-2.881,-1.947 -2.897,-4.677 -2.404,-7.206C-2.345,-7.515 -1.891,-7.395 -1.936,-7.094" style="fill:rgb(208,157,40);"/>
            </g>
            <g transform="matrix(2.62145,2.07244,-1.90293,2.85497,4410.69,-799.51)">
                <g transform="matrix(4.16667,0,0,4.16667,336.94,208.095)">
                    <path d="M0,-1.347C-0.553,0.367 -2.252,3.537 -2.22,5.774C-2.408,5.65 -2.593,5.523 -2.78,5.4C-2.559,4.542 -2.452,3.651 -2.401,2.748C-2.359,3.143 -2.327,3.538 -2.248,3.927C-2.226,4.034 -2.054,4.06 -2.044,3.936C-1.888,1.678 -1.966,-0.605 -1.863,-2.867C-1.849,-3.171 -2.319,-3.256 -2.334,-2.95C-2.357,-2.47 -2.387,-1.985 -2.415,-1.498C-2.445,-2.477 -2.461,-3.447 -2.412,-4.386C-2.392,-4.739 -2.926,-4.848 -2.963,-4.483C-3.28,-1.373 -3.487,1.991 -3.198,5.119C-4.92,3.958 -6.584,2.715 -8.017,1.204C-8.016,1.198 -8.011,1.196 -8.01,1.19C-7.715,-0.395 -7.913,-2.115 -7.952,-3.716C-7.955,-3.847 -8.035,-3.906 -8.125,-3.931C-6.603,-4.182 -4.904,-2.837 -4.236,-1.646C-4.137,-1.464 -3.929,-1.505 -3.804,-1.624C-3.79,-0.445 -3.804,0.729 -3.866,1.911C-3.873,2.005 -3.746,2.029 -3.718,1.935C-3.342,0.538 -3.408,-0.905 -3.439,-2.337C-3.441,-2.414 -3.482,-2.452 -3.537,-2.476C-3.523,-2.508 -3.505,-2.538 -3.5,-2.581C-3.28,-4.24 -2.598,-6.219 -1.303,-7.339C0.433,-7.274 1.192,-6.609 0.971,-5.342C0.938,-4.989 0.889,-4.637 0.815,-4.29C0.643,-3.293 0.307,-2.304 0,-1.347M-8.573,0.632C-9.658,-0.63 -10.761,-2.895 -8.616,-3.803C-8.55,-3.831 -8.483,-3.835 -8.417,-3.855C-8.464,-3.807 -8.5,-3.743 -8.502,-3.663C-8.556,-2.243 -8.718,-0.708 -8.49,0.716C-8.517,0.686 -8.547,0.661 -8.573,0.632M-1.652,-7.835C-3.214,-6.884 -4.127,-4.439 -4.206,-2.708C-5.951,-4.875 -10.588,-5.775 -10.515,-1.998C-10.48,-0.039 -8.864,1.509 -7.534,2.771C-5.908,4.308 -4.004,5.749 -2.036,6.839C-2.027,6.859 -2.024,6.883 -2.016,6.907C-1.943,7.074 -1.658,7.129 -1.587,6.926C-1.583,6.917 -1.582,6.906 -1.578,6.897C-1.385,6.787 -1.273,6.524 -1.4,6.34C-0.611,3.958 -0.049,1.407 0.744,-0.996C1.351,-2.837 2.208,-5.14 1.45,-7.052C0.917,-8.397 -0.602,-8.476 -1.652,-7.835" style="fill:rgb(138,38,40);"/>
                </g>
                <g transform="matrix(-4.11821,0.633639,0.633639,4.11821,312.036,214.156)">
                    <path d="M0.772,-4.547C0.776,-3.025 1.294,-1.39 1.086,0.107C1.06,0.288 0.838,0.258 0.772,0.128C0.111,-1.24 0.21,-3.104 0.346,-4.581C0.368,-4.824 0.771,-4.789 0.772,-4.547" style="fill:rgb(138,38,40);"/>
                </g>
                <g transform="matrix(-4.14398,0.434174,0.434174,4.14398,313.361,219.289)">
                    <path d="M-0.088,-3.714C0.254,-2.531 0.481,-1.114 0.064,0.074C0.038,0.155 -0.087,0.146 -0.088,0.057C-0.089,-1.21 0.004,-2.405 -0.305,-3.652C-0.337,-3.793 -0.128,-3.853 -0.088,-3.714" style="fill:rgb(138,38,40);"/>
                </g>
                <g transform="matrix(-4.12531,0.585612,0.585612,4.12531,319.941,216.836)">
                    <path d="M0.221,-3.237C0.323,-2.178 0.506,-1.082 0.4,-0.02C0.389,0.086 0.231,0.064 0.221,-0.035C0.117,-1.094 0.147,-2.17 0.102,-3.231C0.096,-3.312 0.214,-3.314 0.221,-3.237" style="fill:rgb(138,38,40);"/>
                </g>
                <g transform="matrix(-4.14571,0.417373,0.417373,4.14571,337.928,197.745)">
                    <path d="M0.35,-4.137C0.489,-2.708 0.636,-1.296 0.584,0.143C0.579,0.271 0.376,0.312 0.35,0.176C0.08,-1.254 0.015,-2.688 -0.063,-4.136C-0.079,-4.405 0.324,-4.398 0.35,-4.137" style="fill:rgb(138,38,40);"/>
                </g>
            </g>
            <g transform="matrix(3.23306,-0.219073,0.201154,3.52107,2436.91,-82.0339)">
                <g transform="matrix(4.16667,0,0,4.16667,336.94,208.095)">
                    <path d="M0,-1.347C-0.553,0.367 -2.252,3.537 -2.22,5.774C-2.408,5.65 -2.593,5.523 -2.78,5.4C-2.559,4.542 -2.452,3.651 -2.401,2.748C-2.359,3.143 -2.327,3.538 -2.248,3.927C-2.226,4.034 -2.054,4.06 -2.044,3.936C-1.888,1.678 -1.966,-0.605 -1.863,-2.867C-1.849,-3.171 -2.319,-3.256 -2.334,-2.95C-2.357,-2.47 -2.387,-1.985 -2.415,-1.498C-2.445,-2.477 -2.461,-3.447 -2.412,-4.386C-2.392,-4.739 -2.926,-4.848 -2.963,-4.483C-3.28,-1.373 -3.487,1.991 -3.198,5.119C-4.92,3.958 -6.584,2.715 -8.017,1.204C-8.016,1.198 -8.011,1.196 -8.01,1.19C-7.715,-0.395 -7.913,-2.115 -7.952,-3.716C-7.955,-3.847 -8.035,-3.906 -8.125,-3.931C-6.603,-4.182 -4.904,-2.837 -4.236,-1.646C-4.137,-1.464 -3.929,-1.505 -3.804,-1.624C-3.79,-0.445 -3.804,0.729 -3.866,1.911C-3.873,2.005 -3.746,2.029 -3.718,1.935C-3.342,0.538 -3.408,-0.905 -3.439,-2.337C-3.441,-2.414 -3.482,-2.452 -3.537,-2.476C-3.523,-2.508 -3.505,-2.538 -3.5,-2.581C-3.28,-4.24 -2.598,-6.219 -1.303,-7.339C0.433,-7.274 1.192,-6.609 0.971,-5.342C0.938,-4.989 0.889,-4.637 0.815,-4.29C0.643,-3.293 0.307,-2.304 0,-1.347M-8.573,0.632C-9.658,-0.63 -10.761,-2.895 -8.616,-3.803C-8.55,-3.831 -8.483,-3.835 -8.417,-3.855C-8.464,-3.807 -8.5,-3.743 -8.502,-3.663C-8.556,-2.243 -8.718,-0.708 -8.49,0.716C-8.517,0.686 -8.547,0.661 -8.573,0.632M-1.652,-7.835C-3.214,-6.884 -4.127,-4.439 -4.206,-2.708C-5.951,-4.875 -10.588,-5.775 -10.515,-1.998C-10.48,-0.039 -8.864,1.509 -7.534,2.771C-5.908,4.308 -4.004,5.749 -2.036,6.839C-2.027,6.859 -2.024,6.883 -2.016,6.907C-1.943,7.074 -1.658,7.129 -1.587,6.926C-1.583,6.917 -1.582,6.906 -1.578,6.897C-1.385,6.787 -1.273,6.524 -1.4,6.34C-0.611,3.958 -0.049,1.407 0.744,-0.996C1.351,-2.837 2.208,-5.14 1.45,-7.052C0.917,-8.397 -0.602,-8.476 -1.652,-7.835" style="fill:rgb(138,38,40);"/>
                </g>
                <g transform="matrix(-4.11821,0.633639,0.633639,4.11821,312.036,214.156)">
                    <path d="M0.772,-4.547C0.776,-3.025 1.294,-1.39 1.086,0.107C1.06,0.288 0.838,0.258 0.772,0.128C0.111,-1.24 0.21,-3.104 0.346,-4.581C0.368,-4.824 0.771,-4.789 0.772,-4.547" style="fill:rgb(138,38,40);"/>
                </g>
                <g transform="matrix(-4.14398,0.434174,0.434174,4.14398,313.361,219.289)">
                    <path d="M-0.088,-3.714C0.254,-2.531 0.481,-1.114 0.064,0.074C0.038,0.155 -0.087,0.146 -0.088,0.057C-0.089,-1.21 0.004,-2.405 -0.305,-3.652C-0.337,-3.793 -0.128,-3.853 -0.088,-3.714" style="fill:rgb(138,38,40);"/>
                </g>
                <g transform="matrix(-4.12531,0.585612,0.585612,4.12531,319.941,216.836)">
                    <path d="M0.221,-3.237C0.323,-2.178 0.506,-1.082 0.4,-0.02C0.389,0.086 0.231,0.064 0.221,-0.035C0.117,-1.094 0.147,-2.17 0.102,-3.231C0.096,-3.312 0.214,-3.314 0.221,-3.237" style="fill:rgb(138,38,40);"/>
                </g>
                <g transform="matrix(-4.14571,0.417373,0.417373,4.14571,337.928,197.745)">
                    <path d="M0.35,-4.137C0.489,-2.708 0.636,-1.296 0.584,0.143C0.579,0.271 0.376,0.312 0.35,0.176C0.08,-1.254 0.015,-2.688 -0.063,-4.136C-0.079,-4.405 0.324,-4.398 0.35,-4.137" style="fill:rgb(138,38,40);"/>
                </g>
            </g>
            <g transform="matrix(11.3701,-7.92068,7.2728,12.3829,5063.17,319.15)">
                <path d="M0,-3.959C0.004,-3.968 0.008,-3.98 0.012,-3.99C0.139,-4.366 -0.418,-4.641 -0.556,-4.258C-0.657,-3.985 -0.771,-3.715 -0.881,-3.445C-1.045,-3.514 -1.253,-3.48 -1.357,-3.274C-1.624,-2.744 -1.949,-2.146 -2.267,-1.518C-2.153,-1.966 -2.048,-2.411 -1.931,-2.856C-1.745,-2.801 -1.542,-2.851 -1.462,-3.078C-1.071,-4.195 -0.597,-5.087 0.493,-5.48C0.382,-4.961 0.204,-4.455 0,-3.959M-4.119,-1.045C-4.169,-1.176 -4.224,-1.305 -4.277,-1.435C-4.051,-1.836 -3.964,-2.32 -3.856,-2.762C-3.694,-3.437 -3.598,-4.125 -3.503,-4.81C-3.393,-4.666 -3.3,-4.508 -3.204,-4.355C-3.572,-3.386 -4.035,-2.162 -4.119,-1.045M-4.154,-5.084C-4.292,-4.441 -4.428,-3.8 -4.584,-3.163C-4.621,-3.006 -4.67,-2.85 -4.722,-2.691C-4.742,-2.758 -4.77,-2.824 -4.791,-2.892C-4.744,-3.314 -4.729,-3.747 -4.684,-4.164C-4.625,-4.683 -4.547,-5.196 -4.474,-5.714C-4.317,-5.609 -4.145,-5.468 -3.967,-5.317C-4.054,-5.277 -4.132,-5.208 -4.154,-5.084M0.785,-6.204C-0.233,-5.943 -0.898,-5.603 -1.397,-5.013C-1.42,-4.997 -1.452,-4.988 -1.47,-4.957C-1.5,-4.913 -1.516,-4.87 -1.541,-4.824C-1.678,-4.643 -1.793,-4.419 -1.903,-4.183C-1.986,-4.215 -2.08,-4.219 -2.159,-4.195C-2.499,-5.176 -3.417,-5.984 -4.376,-6.432C-4.372,-6.469 -4.367,-6.506 -4.362,-6.542C-4.298,-6.953 -4.902,-7.06 -4.997,-6.666C-5.074,-6.689 -5.152,-6.721 -5.229,-6.737C-5.405,-6.776 -5.571,-6.64 -5.604,-6.474C-5.818,-5.365 -5.773,-4.281 -5.582,-3.214C-5.58,-2.8 -5.527,-2.403 -5.39,-2.048C-5.37,-1.999 -5.332,-1.963 -5.285,-1.938C-4.834,-0.379 -4.12,1.135 -3.44,2.599C-3.435,2.665 -3.443,2.734 -3.432,2.8C-3.397,3.058 -3.074,3.101 -2.951,2.884C-2.772,2.57 -2.646,2.228 -2.534,1.88C-1.059,-0.542 0.93,-2.936 1.199,-5.86C1.22,-6.108 1.021,-6.267 0.785,-6.204" style="fill:rgb(138,38,40);"/>
            </g>
            <g transform="matrix(11.9956,0.665102,-0.610699,13.0641,3700.97,551.411)">
                <path d="M0,-3.959C0.004,-3.968 0.008,-3.98 0.012,-3.99C0.139,-4.366 -0.418,-4.641 -0.556,-4.258C-0.657,-3.985 -0.771,-3.715 -0.881,-3.445C-1.045,-3.514 -1.253,-3.48 -1.357,-3.274C-1.624,-2.744 -1.949,-2.146 -2.267,-1.518C-2.153,-1.966 -2.048,-2.411 -1.931,-2.856C-1.745,-2.801 -1.542,-2.851 -1.462,-3.078C-1.071,-4.195 -0.597,-5.087 0.493,-5.48C0.382,-4.961 0.204,-4.455 0,-3.959M-4.119,-1.045C-4.169,-1.176 -4.224,-1.305 -4.277,-1.435C-4.051,-1.836 -3.964,-2.32 -3.856,-2.762C-3.694,-3.437 -3.598,-4.125 -3.503,-4.81C-3.393,-4.666 -3.3,-4.508 -3.204,-4.355C-3.572,-3.386 -4.035,-2.162 -4.119,-1.045M-4.154,-5.084C-4.292,-4.441 -4.428,-3.8 -4.584,-3.163C-4.621,-3.006 -4.67,-2.85 -4.722,-2.691C-4.742,-2.758 -4.77,-2.824 -4.791,-2.892C-4.744,-3.314 -4.729,-3.747 -4.684,-4.164C-4.625,-4.683 -4.547,-5.196 -4.474,-5.714C-4.317,-5.609 -4.145,-5.468 -3.967,-5.317C-4.054,-5.277 -4.132,-5.208 -4.154,-5.084M0.785,-6.204C-0.233,-5.943 -0.898,-5.603 -1.397,-5.013C-1.42,-4.997 -1.452,-4.988 -1.47,-4.957C-1.5,-4.913 -1.516,-4.87 -1.541,-4.824C-1.678,-4.643 -1.793,-4.419 -1.903,-4.183C-1.986,-4.215 -2.08,-4.219 -2.159,-4.195C-2.499,-5.176 -3.417,-5.984 -4.376,-6.432C-4.372,-6.469 -4.367,-6.506 -4.362,-6.542C-4.298,-6.953 -4.902,-7.06 -4.997,-6.666C-5.074,-6.689 -5.152,-6.721 -5.229,-6.737C-5.405,-6.776 -5.571,-6.64 -5.604,-6.474C-5.818,-5.365 -5.773,-4.281 -5.582,-3.214C-5.58,-2.8 -5.527,-2.403 -5.39,-2.048C-5.37,-1.999 -5.332,-1.963 -5.285,-1.938C-4.834,-0.379 -4.12,1.135 -3.44,2.599C-3.435,2.665 -3.443,2.734 -3.432,2.8C-3.397,3.058 -3.074,3.101 -2.951,2.884C-2.772,2.57 -2.646,2.228 -2.534,1.88C-1.059,-0.542 0.93,-2.936 1.199,-5.86C1.22,-6.108 1.021,-6.267 0.785,-6.204" style="fill:rgb(202,156,162);"/>
            </g>
            <g transform="matrix(12.9479,4.1505,-3.811,14.1013,3592.85,367.861)">
                <path d="M0,-0.531C-0.115,-0.843 -0.214,-1.167 -0.25,-1.506C-0.295,-1.928 0.031,-2.76 0.445,-2.974C0.473,-2.987 0.501,-2.978 0.527,-2.983C0.347,-2.184 0.132,-1.359 0,-0.531M4.872,-4.551C3.674,-3.966 2.853,-3.128 2.504,-1.912C2.216,-3.05 0.872,-4.214 -0.11,-3.463C-1.069,-2.73 -0.999,-1.35 -0.667,-0.347C-0.517,0.102 -0.316,0.531 -0.1,0.952C-0.098,1.023 -0.108,1.091 -0.104,1.159C-0.094,1.256 -0.005,1.298 0.075,1.288C0.249,1.614 0.425,1.937 0.599,2.262C0.598,2.309 0.589,2.356 0.593,2.403C0.596,2.467 0.655,2.481 0.708,2.47C0.934,2.903 1.144,3.342 1.308,3.801C1.429,4.132 1.966,4.017 1.914,3.661C1.888,3.477 1.846,3.3 1.795,3.125C2.114,2.168 2.204,1.115 2.369,0.122C2.397,-0.059 2.12,-0.106 2.088,0.073C1.927,0.933 1.709,1.814 1.641,2.694C1.481,2.296 1.282,1.912 1.064,1.534C1.343,0.474 1.433,-0.647 1.568,-1.725C1.593,-1.929 1.299,-1.981 1.253,-1.78C1.056,-0.906 0.829,-0.011 0.696,0.888C0.617,0.746 0.53,0.607 0.456,0.463C0.77,-0.592 0.856,-1.73 0.987,-2.812C1.079,-2.732 1.166,-2.645 1.225,-2.581C1.499,-2.262 1.961,-1.556 1.833,-1.11C1.733,-0.753 2.266,-0.626 2.428,-0.922C2.439,-0.943 2.443,-0.967 2.453,-0.989C2.631,-0.798 3.02,-0.835 3.118,-1.171C3.414,-2.161 3.842,-2.911 4.553,-3.542C4.103,-1.2 2.845,0.898 1.912,3.073C1.722,3.518 2.401,3.838 2.592,3.396C3.674,0.852 4.993,-1.415 5.28,-4.212C5.302,-4.419 5.097,-4.663 4.872,-4.551" style="fill:rgb(138,38,40);"/>
            </g>
            <g transform="matrix(13.1454,3.33404,-3.06133,14.3164,4875.31,929.012)">
                <path d="M0,-11.791C-0.479,-9.947 -0.97,-7.647 -0.723,-5.636C-0.728,-5.644 -0.733,-5.65 -0.738,-5.66C-2.418,-8.436 -2.299,-13.119 2.105,-12.265C2.403,-12.206 2.699,-12.112 2.993,-12.012C2.846,-11.983 2.707,-11.893 2.688,-11.705C2.503,-9.946 2.294,-8.195 2.039,-6.445C1.855,-5.189 1.524,-3.951 1.367,-2.695C0.869,-3.322 0.387,-3.961 -0.062,-4.63C0.162,-5.479 0.144,-6.356 0.172,-7.238C0.219,-8.712 0.327,-10.175 0.621,-11.62C0.702,-12.021 0.105,-12.194 0,-11.791M6.619,-9.607C5.779,-7.269 4.852,-4.967 4.039,-2.617C3.882,-2.158 3.467,-1.252 3.757,-0.755C4.021,-0.307 4.453,-0.706 4.537,-1.039C4.549,-1.087 4.535,-1.123 4.529,-1.162C4.537,-1.174 4.548,-1.181 4.555,-1.194C4.67,-1.405 4.725,-1.652 4.794,-1.881C5.055,-2.752 5.344,-3.613 5.635,-4.475C6.145,-5.988 6.643,-7.509 7.129,-9.033C7.312,-8.812 7.483,-8.586 7.646,-8.353C7.08,-6.44 6.445,-4.553 5.796,-2.665C5.467,-1.707 4.755,-0.464 4.414,0.678C3.795,0.053 3.189,-0.583 2.607,-1.239C3.08,-2.36 3.471,-3.51 3.822,-4.673C3.826,-4.681 3.829,-4.687 3.833,-4.695C3.834,-4.699 3.832,-4.701 3.833,-4.705C4.165,-5.803 4.485,-6.904 4.865,-7.987C5.009,-8.396 4.373,-8.561 4.223,-8.165C3.57,-6.439 3.018,-4.68 2.363,-2.957C2.201,-2.649 2.053,-2.335 1.912,-2.016L1.908,-2.019C3.197,-4.892 3.139,-8.648 3.377,-11.705C3.383,-11.791 3.347,-11.843 3.311,-11.895C4.523,-11.415 5.67,-10.594 6.619,-9.607M8.234,-7.398C8.377,-7.133 8.5,-6.865 8.609,-6.597C7.659,-4.025 6.244,-0.754 6.025,2.228C5.779,1.995 5.525,1.767 5.283,1.53C5.914,0.563 6.204,-0.915 6.533,-1.849C7.175,-3.67 7.721,-5.532 8.234,-7.398M8.983,4.14C9.353,3.612 9.684,3.057 9.986,2.483C10.084,2.489 10.183,2.463 10.244,2.355C12.194,-1.058 12.856,-5.23 14.31,-8.877C14.506,-9.364 13.722,-9.568 13.526,-9.091C13.456,-8.919 13.389,-8.738 13.318,-8.563C13.52,-9.456 13.728,-10.334 13.955,-11.18C14.895,-12.145 15.955,-13.328 16.218,-14.679C16.22,-14.69 16.214,-14.699 16.214,-14.712C16.334,-14.751 16.453,-14.799 16.576,-14.833C19.289,-15.583 19.16,-12.296 18.897,-10.623C18.313,-6.896 16.28,-3.567 13.95,-0.454C14.381,-1.485 14.764,-2.539 15.117,-3.606C15.206,-3.604 15.297,-3.626 15.354,-3.71C16.483,-5.378 17.266,-7.305 18.15,-9.111C18.345,-9.51 17.754,-9.861 17.55,-9.461C17.04,-8.461 16.489,-7.465 15.979,-6.45C16.668,-8.885 17.257,-11.347 17.893,-13.727C18.014,-14.175 17.332,-14.36 17.201,-13.917C15.448,-8 13.784,-2.243 11.034,3.257C10.479,3.949 9.932,4.633 9.41,5.311C9.084,5.025 8.765,4.733 8.443,4.441C8.488,4.341 8.521,4.233 8.563,4.132C8.641,4.27 8.872,4.3 8.983,4.14M9.773,-7.364C10.281,-9.75 11.616,-11.588 13.44,-13.161C14.073,-13.708 14.8,-14.147 15.571,-14.475C14.802,-13.565 14.178,-12.542 13.334,-11.686C13.256,-11.605 13.228,-11.518 13.225,-11.432C12.154,-7.848 11.012,-4.267 9.922,-0.682C10.389,-3.249 10.594,-5.898 10.896,-8.379C10.938,-8.719 10.352,-8.798 10.298,-8.46C10.203,-7.872 10.095,-7.292 9.993,-6.71C9.898,-6.894 9.619,-6.954 9.457,-6.809C9.443,-6.825 9.439,-6.849 9.424,-6.862C9.4,-6.934 9.38,-7.006 9.354,-7.08C9.537,-7.066 9.73,-7.153 9.773,-7.364M7.188,3.312C7.129,3.257 7.067,3.205 7.009,3.15C7.32,1.878 7.455,0.522 7.762,-0.731C7.836,-1.032 7.933,-1.327 8.014,-1.627C7.639,0.015 7.344,1.681 7.188,3.312M1.492,-0.912C1.462,-0.817 1.422,-0.73 1.395,-0.634C1.269,-0.211 1.83,0.09 2.113,-0.172C3.314,1.241 4.645,2.621 6.049,3.873C6.066,4.046 6.064,4.227 6.094,4.396C6.147,4.69 6.535,4.619 6.623,4.396C6.624,4.392 6.625,4.387 6.626,4.384C6.779,4.513 6.936,4.635 7.09,4.763C7.076,5.121 7.059,5.481 7.062,5.834C7.064,6.021 7.355,6.13 7.441,5.937C7.537,5.716 7.608,5.481 7.693,5.255C8.066,5.546 8.442,5.823 8.824,6.083C8.789,6.132 8.752,6.18 8.717,6.227C8.42,6.628 9.041,7.04 9.377,6.736C9.44,6.678 9.501,6.612 9.564,6.554C9.882,6.65 10.188,6.317 10.111,6.021C13.39,2.796 16.059,-1.567 18.102,-5.571C19.222,-7.766 21.416,-12.674 19.322,-14.947C15.742,-18.831 9.699,-11.349 9.027,-7.817C8.893,-8.08 8.738,-8.343 8.566,-8.603C8.617,-8.859 8.436,-9.03 8.229,-9.064C5.426,-12.832 -0.807,-15.882 -2.73,-10.419C-3.76,-7.494 -1.076,-4.192 0.561,-2.079C0.861,-1.692 1.173,-1.302 1.492,-0.912" style="fill:rgb(138,38,40);"/>
            </g>
            <g transform="matrix(9.5439,-10.3941,9.5439,10.3941,3502.94,861.845)">
                <path d="M0,3.386C0.146,3.312 0.208,3.198 0.221,3.078C1.008,2.761 1.776,2.408 2.488,1.97C2.452,2.073 2.405,2.172 2.371,2.276C2.293,2.511 2.404,2.667 2.565,2.744C0.021,3.695 -2.435,5.223 -4.666,6.576C-5.117,6.849 -4.711,7.548 -4.253,7.282C-1.235,5.527 2.05,4.361 5.083,2.683C5.432,2.491 5.186,1.994 4.825,2.07C4.692,2.097 4.562,2.14 4.43,2.171C5.771,1.558 7.19,1.322 8.727,1.34C9.315,1.347 9.888,1.423 10.404,1.559C10.01,1.799 9.624,2.052 9.235,2.3C9.206,2.267 9.167,2.244 9.112,2.264C8.326,2.536 7.558,2.852 6.797,3.184C6.765,3.163 6.728,3.152 6.69,3.158C2.735,3.957 -1.122,6.255 -4.876,7.724C-5.386,7.924 -5.168,8.751 -4.647,8.553C-3.51,8.119 -2.291,7.696 -1.058,7.253C-1.298,7.383 -1.538,7.51 -1.779,7.64C-2.646,8.083 -3.512,8.525 -4.375,8.977C-4.872,9.238 -4.436,9.953 -3.94,9.721C-0.65,8.172 2.594,6.44 5.75,4.597C5.734,4.607 5.718,4.617 5.703,4.628C3.913,5.847 1.945,6.876 0.235,8.197C-0.001,8.378 0.12,8.816 0.454,8.714C1.137,8.507 1.8,8.216 2.453,7.892C1.789,8.323 1.146,8.777 0.564,9.294C-1.804,9.708 -4.18,10.004 -6.41,10.366C-6.439,10.371 -6.456,10.386 -6.482,10.394C-5.956,9.075 -5.632,7.621 -5.359,6.138C-3.538,5.287 -1.784,4.31 0,3.386M-4.851,3.24C-3.854,2.615 -2.949,1.8 -2.062,1.062C-0.597,-0.155 0.806,-1.44 2.148,-2.792C2.479,-3.126 1.972,-3.634 1.634,-3.307C0.398,-2.113 -0.9,-0.999 -2.23,0.087C-2.997,0.711 -3.829,1.307 -4.604,1.954C-4.443,1.162 -4.261,0.388 -4.028,-0.345C-4.027,-0.35 -4.024,-0.355 -4.023,-0.361C-3.886,-0.442 -3.753,-0.537 -3.619,-0.628C-3.8,-0.383 -3.967,-0.132 -4.09,0.139C-4.194,0.369 -3.969,0.667 -3.718,0.511C-2.68,-0.138 -1.859,-1.155 -0.955,-1.974C0.101,-2.93 1.169,-3.873 2.168,-4.888C2.268,-4.989 2.292,-5.102 2.275,-5.21C2.407,-5.294 2.536,-5.385 2.672,-5.468C3.062,-5.703 2.718,-6.293 2.318,-6.075C0.94,-5.329 -0.334,-4.447 -1.568,-3.485C-2.135,-3.042 -2.76,-2.599 -3.356,-2.126C-2.396,-4.299 -0.835,-6.488 1.541,-6.772C5.542,-7.25 4.001,-2.064 3.475,-0.571C3.259,0.042 3.008,0.642 2.766,1.244C2.752,1.244 2.743,1.237 2.729,1.239C1.282,1.441 -0.243,1.977 -1.714,2.672C-1.645,2.615 -1.574,2.557 -1.504,2.501C0.203,1.135 1.857,-0.29 3.407,-1.836C3.806,-2.231 3.196,-2.84 2.793,-2.45C1.378,-1.081 -0.121,0.186 -1.655,1.417C-2.716,2.268 -3.936,3.069 -4.981,3.999C-4.937,3.747 -4.896,3.491 -4.851,3.24M10.972,1.744C11.329,1.88 11.643,2.048 11.903,2.241C10.995,2.961 10.053,3.637 9.137,4.347C8.175,5.091 6.945,5.921 6.412,7.046C6.265,7.352 6.582,7.773 6.914,7.55C7.862,6.917 8.644,6.007 9.538,5.292C10.523,4.503 11.541,3.752 12.522,2.954C12.792,3.51 12.679,4.173 11.997,4.889C12.045,4.531 11.698,4.144 11.333,4.41C10.025,5.367 8.55,6.137 7.471,7.369C7.434,7.411 7.422,7.456 7.416,7.5C5.987,8.052 4.492,8.478 2.963,8.817C3.67,8.339 4.348,7.811 5.017,7.324C6.528,6.233 7.978,5.051 9.435,3.889C9.688,3.686 9.516,3.315 9.265,3.215C9.787,2.819 10.31,2.431 10.827,2.074C10.952,1.989 10.99,1.861 10.972,1.744M-7.524,11.162C-7.523,11.491 -7.044,11.649 -6.887,11.336C-6.83,11.224 -6.79,11.103 -6.737,10.99C-6.653,11.215 -6.438,11.404 -6.139,11.354C-1.239,10.561 3.921,10.062 8.51,8.039C10.411,7.201 14.131,5.823 14.031,3.17C13.883,-0.809 6.497,0.228 3.634,1.588C4.609,-0.551 5.971,-3.347 4.729,-5.413C3.441,-7.554 1.744,-8.263 -0.551,-7.087C-2.901,-5.881 -4.139,-3.014 -4.968,-0.564C-4.988,-0.537 -5.016,-0.513 -5.035,-0.487C-5.086,-0.42 -5.085,-0.343 -5.065,-0.267C-5.12,-0.102 -5.178,0.068 -5.229,0.227C-6.274,3.502 -7.533,7.709 -7.524,11.162" style="fill:rgb(202,156,162);"/>
            </g>
            <g transform="matrix(9.90778,2.89128,-2.65478,10.7904,4994.27,492.559)">
                <path d="M0,10.093C0.538,10.681 1.06,11.283 1.587,11.883C2.034,12.387 2.548,13.176 3.187,13.527C3.081,13.514 2.979,13.516 2.874,13.5C1.589,13.318 0.344,12.323 -0.108,11.096C-0.241,10.738 -0.169,10.404 0,10.093M0.815,9.205C0.819,9.293 0.849,9.384 0.928,9.466C1.745,10.311 2.564,11.155 3.406,11.976C3.96,12.517 4.606,13.238 5.342,13.58C4.849,13.607 4.353,13.613 3.849,13.581C3.901,13.516 3.931,13.43 3.91,13.332C3.755,12.588 2.937,11.981 2.444,11.431C1.83,10.743 1.194,10.076 0.54,9.426C0.628,9.349 0.722,9.277 0.815,9.205M2.062,8.398C2.091,8.38 2.124,8.368 2.155,8.352C2.852,9.229 3.537,10.114 4.247,10.981C4.905,11.785 5.701,12.882 6.664,13.425C6.458,13.453 6.256,13.502 6.049,13.522C6.083,13.433 6.093,13.336 6.044,13.239C5.643,12.466 4.713,11.894 4.074,11.309C3.208,10.511 2.358,9.699 1.513,8.881C1.474,8.842 1.431,8.82 1.388,8.801C1.638,8.641 1.877,8.504 2.062,8.398M3.883,7.572C3.867,7.628 3.863,7.692 3.892,7.759C4.333,8.827 4.841,9.851 5.448,10.835C5.484,10.894 5.53,10.961 5.567,11.023C5.327,10.792 5.097,10.564 4.895,10.334C4.213,9.559 3.538,8.779 2.86,7.999C3.196,7.844 3.538,7.704 3.883,7.572M4.829,7.218C5.511,8.373 6.157,9.548 6.83,10.709C7.093,11.166 7.353,11.654 7.64,12.12C7.183,11.529 6.63,10.98 6.215,10.386C5.573,9.466 5.034,8.492 4.561,7.478C4.534,7.422 4.497,7.385 4.454,7.356C4.579,7.31 4.704,7.262 4.829,7.218M6.208,6.678C6.729,7.805 7.338,8.88 8.007,9.928C8.612,10.878 9.22,11.967 10.131,12.655C9.813,12.74 9.494,12.833 9.175,12.911C8.8,11.97 8.125,11.114 7.612,10.253C6.95,9.14 6.284,8.029 5.604,6.926C5.808,6.848 6.007,6.762 6.208,6.678M5.124,1.139C5.139,1.184 5.159,1.228 5.193,1.271C6.599,3.018 7.999,4.771 9.364,6.551C9.835,7.167 10.281,7.815 10.733,8.461C10.479,8.164 10.226,7.867 9.987,7.565C9.067,6.403 8.179,5.217 7.21,4.092C6.917,3.752 6.442,4.24 6.722,4.578C6.974,4.885 7.222,5.212 7.468,5.548C7.161,5.372 6.703,5.691 6.945,6.036C8.308,7.974 9.804,10.699 11.965,11.836C12.192,11.956 12.529,11.694 12.349,11.451C12.194,11.242 12.012,11.057 11.842,10.862C11.989,10.974 12.132,11.098 12.286,11.199C12.474,11.322 12.687,11.113 12.63,10.92C12.796,11.108 12.951,11.305 13.127,11.48C13.358,11.71 13.659,11.419 13.546,11.155C12.974,9.806 12.056,8.585 11.123,7.41C11.382,7.666 11.639,7.926 11.911,8.159C12.146,8.362 12.499,8.111 12.345,7.824C11.399,6.071 9.993,4.508 8.838,2.881C7.532,1.041 6.317,-0.865 5.143,-2.791C5.075,-2.899 4.98,-2.943 4.883,-2.949C5.517,-3.845 7.497,-2.083 7.933,-1.507C10.722,2.184 12.526,7.199 13.919,11.615C12.771,11.919 11.639,12.244 10.507,12.553C10.517,12.517 10.522,12.479 10.511,12.44C10.179,11.352 9.345,10.447 8.711,9.517C7.987,8.455 7.345,7.348 6.8,6.186C6.797,6.136 6.788,6.086 6.769,6.037C6.831,5.917 6.847,5.771 6.761,5.614C5.995,4.213 5.519,2.679 5.124,1.139M5.03,0.78C4.787,-0.203 4.647,-1.204 4.685,-2.218C5.749,-0.332 6.874,1.759 8.161,3.709C7.351,2.717 6.533,1.732 5.714,0.748C5.45,0.432 5.039,0.778 5.118,1.114C5.089,1.002 5.058,0.892 5.03,0.78M7.35,14.381C9.46,14.108 12.802,13.75 14.604,12.359C14.87,12.317 15.104,12.095 15.002,11.764C13.922,8.293 12.438,4.912 10.839,1.652C9.726,-0.622 8.348,-3.568 5.599,-4.157C1.803,-4.97 4.862,3.916 5.829,5.833C5.554,5.902 5.263,5.984 4.96,6.076C4.802,6.036 4.629,6.1 4.527,6.222C3.751,6.482 2.933,6.804 2.164,7.2C2.136,7.168 2.108,7.137 2.081,7.105C1.786,6.772 1.347,7.2 1.533,7.547C-0.769,8.907 -2.245,10.893 0.274,13.299C2.12,15.063 5.046,14.682 7.35,14.381" style="fill:rgb(202,156,162);"/>
            </g>
        </g>
    </g>
</svg>
